<svg xmlns="http://www.w3.org/2000/svg" version="1.1" xmlns:xlink="http://www.w3.org/1999/xlink" width="512" height="512" x="0" y="0" viewBox="0 0 682.667 682.667" style="enable-background:new 0 0 512 512" xml:space="preserve" class=""><g><defs><clipPath id="a" clipPathUnits="userSpaceOnUse"><path d="M0 512h512V0H0Z" fill="#000000" opacity="1" data-original="#000000" class=""></path></clipPath></defs><path d="M0 0h-98.18l-43.43-92.86 92.52-34.96 92.52 34.96z" style="fill-opacity:1;fill-rule:nonzero;stroke:none" transform="matrix(1.33333 0 0 -1.33333 406.786 445.574)" fill="#E0B152" data-original="#ffee80" class="" opacity="1"></path><g clip-path="url(#a)" transform="matrix(1.33333 0 0 -1.33333 0 682.667)"><path d="M0 0v-8.03c0-11.05 8.95-20 20-20s20 8.95 20 20V9.12Z" style="fill-opacity:1;fill-rule:nonzero;stroke:none" transform="translate(356 184.03)" fill="#EEFAFF" data-original="#eefaff" class=""></path><path d="M0 0c0-11.05 8.95-20 20-20s20 8.95 20 20v20.3H0Z" style="fill-opacity:1;fill-rule:nonzero;stroke:none" transform="translate(236 156)" fill="#EEFAFF" data-original="#eefaff" class=""></path><path d="M0 0c0-11.05 8.95-20 20-20s20 8.95 20 20v8.03L0 17.15Z" style="fill-opacity:1;fill-rule:nonzero;stroke:none" transform="translate(116 176)" fill="#EEFAFF" data-original="#eefaff" class=""></path><path d="M0 0h-234.64c-50.1-10.91-82.68-28.61-82.68-48.6 0-48.057 151.812-60 200-60 48.474 0 200 11.996 200 60C82.68-28.61 50.1-10.91 0 0" style="fill-opacity:1;fill-rule:nonzero;stroke:none" transform="translate(373.32 284.6)" fill="#A4CAFF" data-original="#a4caff" class=""></path><path d="m0 0 20-40h-186l-20-20h-40l-20 20h-186l20 40c26.59 0 59.09 2.9 85.05 8.66C-284.206 18.133-279.184 20-266 20c33.14 0 60-17.91 60-40 0 22.09 26.86 40 60 40 15.715 0 23.065-3.433 60.95-11.34C-59.09 2.9-26.59 0 0 0" style="fill-opacity:1;fill-rule:nonzero;stroke:none" transform="translate(462 70)" fill="#EEFAFF" data-original="#eefaff" class=""></path><path d="M0 0c-23.476 23.458-61.467 23.393-84.859 0-23.3-23.3-23.545-61.304 0-84.86 23.574-23.563 61.575-23.285 84.859 0C23.368-61.493 23.482-23.499 0 0" style="fill-opacity:1;fill-rule:nonzero;stroke:none" transform="translate(463.43 463.43)" fill="#E0B152" data-original="#ffee80" class="" opacity="1"></path><path d="M0 0c1.76-8.92 2.68-18.46 2.68-28.6 0 0-59-20-120-20s-120 20-120 20c0 10.14.92 19.68 2.68 28.6 11.619 59.18 59.74 91.4 117.32 91.4C-59.74 91.4-11.62 59.18 0 0" style="fill-opacity:1;fill-rule:nonzero;stroke:none" transform="translate(373.32 284.6)" fill="#EEFAFF" data-original="#eefaff" class=""></path><path d="M0 0c0 22.09-26.86 40-60 40-6.62 0-12.99-.71-18.94-2.03l-13.58-3.01-28.43-6.3C-146.91 22.9-179.41 20-206 20l-20-40" style="stroke-linecap: round; stroke-linejoin: round; stroke-miterlimit: 10; stroke-dasharray: none; stroke-opacity: 1;" transform="translate(256 50)" fill="none" stroke="#000000" stroke-width="20px" stroke-linecap="round" stroke-linejoin="round" stroke-miterlimit="10" stroke-dasharray="none" stroke-opacity="" data-original="#000000" class=""></path><path d="m0 0-20 40c-26.59 0-59.09 2.9-85.05 8.66l-28.43 6.3-13.58 3.01C-153.01 59.29-159.38 60-166 60c-33.14 0-60-17.91-60-40" style="stroke-linecap: round; stroke-linejoin: round; stroke-miterlimit: 10; stroke-dasharray: none; stroke-opacity: 1;" transform="translate(482 30)" fill="none" stroke="#000000" stroke-width="20px" stroke-linecap="round" stroke-linejoin="round" stroke-miterlimit="10" stroke-dasharray="none" stroke-opacity="" data-original="#000000" class=""></path><path d="M0 0c-1.76-8.92-2.68-18.46-2.68-28.6 0 0 59-20 120-20s120 20 120 20c0 10.14-.92 19.68-2.68 28.6-11.62 59.18-59.74 91.4-117.32 91.4C59.74 91.4 11.62 59.18 0 0Z" style="stroke-linecap: round; stroke-linejoin: round; stroke-miterlimit: 10; stroke-dasharray: none; stroke-opacity: 1;" transform="translate(138.68 284.6)" fill="none" stroke="#000000" stroke-width="20px" stroke-linecap="round" stroke-linejoin="round" stroke-miterlimit="10" stroke-dasharray="none" stroke-opacity="" data-original="#000000" class=""></path><path d="M0 0c13.81 46.39 60.17 50.52 76.07 50.52" style="stroke-linecap: round; stroke-linejoin: round; stroke-miterlimit: 10; stroke-dasharray: none; stroke-opacity: 1;" transform="translate(179.93 285.48)" fill="none" stroke="#000000" stroke-width="20px" stroke-linecap="round" stroke-linejoin="round" stroke-miterlimit="10" stroke-dasharray="none" stroke-opacity="" data-original="#000000" class=""></path><path d="M0 0c50.1-10.91 82.68-28.61 82.68-48.6 0-16.78-22.97-31.96-60-42.85-11.96-3.52-25.401-6.59-40-9.12-15.741-2.73-32.83-4.84-50.91-6.21-9.44-.71-19.161-1.23-29.09-1.52-6.58-.2-13.25-.3-20-.3s-13.42.1-20 .3c-9.93.29-19.65.81-29.09 1.52-18.08 1.37-35.17 3.48-50.91 6.21-14.6 2.53-28.04 5.6-40 9.12-37.03 10.89-60 26.07-60 42.85 0 19.99 32.58 37.69 82.68 48.6" style="stroke-linecap: round; stroke-linejoin: round; stroke-miterlimit: 10; stroke-dasharray: none; stroke-opacity: 1;" transform="translate(373.32 284.6)" fill="none" stroke="#000000" stroke-width="20px" stroke-linecap="round" stroke-linejoin="round" stroke-miterlimit="10" stroke-dasharray="none" stroke-opacity="" data-original="#000000" class=""></path><path d="M0 0c-1.68-12.58-7.36-24.73-17.03-34.4a59.58 59.58 0 0 0-11.41-8.94c-23.08-13.96-53.52-10.98-73.45 8.94-19.92 19.93-22.9 50.37-8.94 73.45a59.58 59.58 0 0 0 8.94 11.41c9.67 9.67 21.82 15.35 34.4 17.03 17.91 2.41 36.69-3.27 50.46-17.03C-3.27 36.69 2.41 17.91 0 0Z" style="stroke-linecap: round; stroke-linejoin: round; stroke-miterlimit: 10; stroke-dasharray: none; stroke-opacity: 1;" transform="translate(480.46 412.97)" fill="none" stroke="#000000" stroke-width="20px" stroke-linecap="round" stroke-linejoin="round" stroke-miterlimit="10" stroke-dasharray="none" stroke-opacity="" data-original="#000000" class=""></path><path d="M0 0c18.43-25.61 26.37-47.56 18.32-55.61-7.1-7.11-25.03-1.75-46.76 12.27-14.09 9.11-29.789 21.86-45.16 37.23-15.37 15.37-28.12 31.07-37.23 45.16-14.02 21.73-19.38 39.66-12.27 46.76 8.05 8.05 30 .11 55.61-18.32" style="stroke-linecap: round; stroke-linejoin: round; stroke-miterlimit: 10; stroke-dasharray: none; stroke-opacity: 1;" transform="translate(480.46 412.97)" fill="none" stroke="#000000" stroke-width="20px" stroke-linecap="round" stroke-linejoin="round" stroke-miterlimit="10" stroke-dasharray="none" stroke-opacity="" data-original="#000000" class=""></path><path d="m0 0-43.43-92.86" style="stroke-linecap: round; stroke-linejoin: round; stroke-miterlimit: 10; stroke-dasharray: none; stroke-opacity: 1;" transform="translate(206.91 177.82)" fill="none" stroke="#000000" stroke-width="20px" stroke-linecap="round" stroke-linejoin="round" stroke-miterlimit="10" stroke-dasharray="none" stroke-opacity="" data-original="#000000" class=""></path><path d="m0 0-43.43 92.86" style="stroke-linecap: round; stroke-linejoin: round; stroke-miterlimit: 10; stroke-dasharray: none; stroke-opacity: 1;" transform="translate(348.52 84.96)" fill="none" stroke="#000000" stroke-width="20px" stroke-linecap="round" stroke-linejoin="round" stroke-miterlimit="10" stroke-dasharray="none" stroke-opacity="" data-original="#000000" class=""></path><path d="M0 0v-20.3c0-11.05-8.95-20-20-20s-20 8.95-20 20V0" style="stroke-linecap: round; stroke-linejoin: round; stroke-miterlimit: 10; stroke-dasharray: none; stroke-opacity: 1;" transform="translate(276 176.3)" fill="none" stroke="#000000" stroke-width="20px" stroke-linecap="round" stroke-linejoin="round" stroke-miterlimit="10" stroke-dasharray="none" stroke-opacity="" data-original="#000000" class=""></path><path d="M0 0v-8.03c0-11.05-8.95-20-20-20s-20 8.95-20 20V9.12" style="stroke-linecap: round; stroke-linejoin: round; stroke-miterlimit: 10; stroke-dasharray: none; stroke-opacity: 1;" transform="translate(156 184.03)" fill="none" stroke="#000000" stroke-width="20px" stroke-linecap="round" stroke-linejoin="round" stroke-miterlimit="10" stroke-dasharray="none" stroke-opacity="" data-original="#000000" class=""></path><path d="M0 0v-17.15c0-11.05-8.95-20-20-20s-20 8.95-20 20v8.03" style="stroke-linecap: round; stroke-linejoin: round; stroke-miterlimit: 10; stroke-dasharray: none; stroke-opacity: 1;" transform="translate(396 193.15)" fill="none" stroke="#000000" stroke-width="20px" stroke-linecap="round" stroke-linejoin="round" stroke-miterlimit="10" stroke-dasharray="none" stroke-opacity="" data-original="#000000" class=""></path><path d="M0 0v-40" style="stroke-linecap: round; stroke-linejoin: round; stroke-miterlimit: 10; stroke-dasharray: none; stroke-opacity: 1;" transform="translate(156 456)" fill="none" stroke="#000000" stroke-width="20px" stroke-linecap="round" stroke-linejoin="round" stroke-miterlimit="10" stroke-dasharray="none" stroke-opacity="" data-original="#000000" class=""></path><path d="M0 0h40" style="stroke-linecap: round; stroke-linejoin: round; stroke-miterlimit: 10; stroke-dasharray: none; stroke-opacity: 1;" transform="translate(136 436)" fill="none" stroke="#000000" stroke-width="20px" stroke-linecap="round" stroke-linejoin="round" stroke-miterlimit="10" stroke-dasharray="none" stroke-opacity="" data-original="#000000" class=""></path><path d="M0 0v-40" style="stroke-linecap: round; stroke-linejoin: round; stroke-miterlimit: 10; stroke-dasharray: none; stroke-opacity: 1;" transform="translate(76 356)" fill="none" stroke="#000000" stroke-width="20px" stroke-linecap="round" stroke-linejoin="round" stroke-miterlimit="10" stroke-dasharray="none" stroke-opacity="" data-original="#000000" class=""></path><path d="M0 0h40" style="stroke-linecap: round; stroke-linejoin: round; stroke-miterlimit: 10; stroke-dasharray: none; stroke-opacity: 1;" transform="translate(56 336)" fill="none" stroke="#000000" stroke-width="20px" stroke-linecap="round" stroke-linejoin="round" stroke-miterlimit="10" stroke-dasharray="none" stroke-opacity="" data-original="#000000" class=""></path><path d="M0 0c0-5.523-4.477-10-10-10S-20-5.523-20 0s4.477 10 10 10S0 5.523 0 0" style="fill-opacity:1;fill-rule:nonzero;stroke:none" transform="translate(143 30)" fill="#000000" data-original="#000000" class=""></path><path d="M0 0h78" style="stroke-linecap: round; stroke-linejoin: round; stroke-miterlimit: 10; stroke-dasharray: none; stroke-opacity: 1;" transform="translate(10 30)" fill="none" stroke="#000000" stroke-width="20px" stroke-linecap="round" stroke-linejoin="round" stroke-miterlimit="10" stroke-dasharray="none" stroke-opacity="" data-original="#000000" class=""></path><path d="M0 0h38l20-20h40l20 20h206" style="stroke-linecap: round; stroke-linejoin: round; stroke-miterlimit: 10; stroke-dasharray: none; stroke-opacity: 1;" transform="translate(178 30)" fill="none" stroke="#000000" stroke-width="20px" stroke-linecap="round" stroke-linejoin="round" stroke-miterlimit="10" stroke-dasharray="none" stroke-opacity="" data-original="#000000" class=""></path></g></g></svg>