<svg xmlns="http://www.w3.org/2000/svg" version="1.1" xmlns:xlink="http://www.w3.org/1999/xlink" width="512" height="512" x="0" y="0" viewBox="0 0 682.667 682.667" style="enable-background:new 0 0 512 512" xml:space="preserve" class=""><g><defs><clipPath id="a" clipPathUnits="userSpaceOnUse"><path d="M0 512h512V0H0Z" fill="#000000" opacity="1" data-original="#000000"></path></clipPath></defs><path d="M176 77h160v123H176Z" style="fill-opacity:1;fill-rule:nonzero;stroke:none" transform="matrix(1.33333 0 0 -1.33333 0 682.667)" fill="#FFE499" data-original="#ffe499"></path><path d="M336 86.5h-30V190h30z" style="fill-opacity:1;fill-rule:nonzero;stroke:none" transform="matrix(1.33333 0 0 -1.33333 0 682.667)" fill="#F9CC73" data-original="#f9cc73"></path><g clip-path="url(#a)" transform="matrix(1.33333 0 0 -1.33333 0 682.667)"><path d="M0 0v78a5 5 0 0 0 5 5h30a5 5 0 0 0 5-5V0Z" style="fill-opacity:1;fill-rule:nonzero;stroke:none" transform="translate(206 77)" fill="#E0B88D" data-original="#e0b88d"></path><path d="M0 0c-8.686.353-16.415-3.82-21.033-10.35-1.374-1.945-3.91-2.677-6.088-1.714a24.42 24.42 0 0 1-10.421 2.079c-13.418-.278-23.98-11.623-23.98-25.045v-4.949l85-20v34.922C23.478-11.823 13.223-.538 0 0" style="fill-opacity:1;fill-rule:nonzero;stroke:none" transform="translate(481.022 169.48)" fill="#88B79B" data-original="#88b79b"></path><path d="M0 0v-14.92h-30V0c0 7.98-3.73 15.24-9.58 19.87a24.32 24.32 0 0 0 16.1 5.19C-10.26 24.52 0 13.24 0 0" style="fill-opacity:1;fill-rule:nonzero;stroke:none" transform="translate(504.5 144.42)" fill="#67A07E" data-original="#67a07e"></path><path d="M0 0c8.686.353 16.415-3.82 21.033-10.35 1.374-1.945 3.91-2.677 6.088-1.714a24.42 24.42 0 0 0 10.421 2.079c13.418-.278 23.98-11.623 23.98-25.045v-4.949l-85-20v34.922C-23.478-11.823-13.223-.538 0 0" style="fill-opacity:1;fill-rule:nonzero;stroke:none" transform="translate(30.978 169.48)" fill="#88B79B" data-original="#88b79b"></path><path d="M0 0v-4.95h-30V0c0 13.42-10.56 24.77-23.98 25.04-3.71.08-7.24-.67-10.42-2.07-2.18-.97-4.71-.24-6.09 1.71a24.372 24.372 0 0 1-4.93 5.16c3.86 3.07 8.65 4.98 13.9 5.19 8.68.35 16.41-3.82 21.03-10.35 1.38-1.95 3.91-2.68 6.09-1.71a24.48 24.48 0 0 0 10.42 2.07C-10.56 24.77 0 13.42 0 0" style="fill-opacity:1;fill-rule:nonzero;stroke:none" transform="translate(92.5 134.45)" fill="#67A07E" data-original="#67a07e"></path><path d="M0 0v81h90.128a25 25 0 0 0 23.43-16.282l6.307-16.949A15 15 0 0 1 133.923 38h229.154a15 15 0 0 1 14.058 9.769l6.307 16.949A25 25 0 0 0 406.872 81H497V0Z" style="fill-opacity:1;fill-rule:nonzero;stroke:none" transform="translate(7.5 48.5)" fill="#9EDBA0" data-original="#9edba0"></path><path d="M504.5 56.5h-30v73h30z" style="fill-opacity:1;fill-rule:nonzero;stroke:none" fill="#80C180" data-original="#80c180"></path><path d="M0 0h-30c-6.26 0-11.87 3.9-14.05 9.77l-6.31 16.95a24.962 24.962 0 0 1-11.48 13.24A24.902 24.902 0 0 1-73.79 43h30c10.44 0 19.79-6.49 23.43-16.28l6.31-16.95C-11.87 3.9-6.26 0 0 0" style="fill-opacity:1;fill-rule:nonzero;stroke:none" transform="translate(141.42 86.5)" fill="#80C180" data-original="#80c180"></path><path d="M0 0c8.25 0 15 6.75 15 15v15h-497V15c0-8.284 6.716-15 15-15z" style="fill-opacity:1;fill-rule:nonzero;stroke:none" transform="translate(489.5 26.5)" fill="#E0B88D" data-original="#e0b88d"></path><path d="M0 0v-15c0-8.25-6.75-15-15-15h-30c8.25 0 15 6.75 15 15V0Z" style="fill-opacity:1;fill-rule:nonzero;stroke:none" transform="translate(504.5 56.5)" fill="#C6916D" data-original="#c6916d"></path><path d="m0 0-10.854 21.708A15 15 0 0 1-24.271 30h-63.458a15 15 0 0 1-13.417-8.292L-112 0l56-16Z" style="fill-opacity:1;fill-rule:nonzero;stroke:none" transform="translate(312 245)" fill="#E2E2E2" data-original="#e2e2e2"></path><path d="M0 0h-30l-10.85 21.71A15.008 15.008 0 0 1-54.27 30h30c5.68 0 10.88-3.21 13.42-8.29z" style="fill-opacity:1;fill-rule:nonzero;stroke:none" transform="translate(312 245)" fill="#C6C6C6" data-original="#c6c6c6"></path><path d="M0 0h-193.155c-3.795 0-6.206 4.062-4.389 7.394l20.281 37.183A20 20 0 0 0-159.705 55H-33.45a20 20 0 0 0 17.558-10.423L4.389 7.394C6.207 4.062 3.795 0 0 0" style="fill-opacity:1;fill-rule:nonzero;stroke:none" transform="translate(352.577 190)" fill="#E8B1B1" data-original="#e8b1b1" class=""></path><path d="M0 0h-30c3.79 0 6.2 4.06 4.39 7.39L-27.03 10l-18.86 34.58c-1.58 2.89-3.81 5.3-6.46 7.06A20.034 20.034 0 0 1-63.45 55h30c7.32 0 14.05-4 17.56-10.42L4.39 7.39C6.2 4.06 3.79 0 0 0" style="fill-opacity:1;fill-rule:nonzero;stroke:none" transform="translate(352.58 190)" fill="#E09494" data-original="#e09494"></path><path d="M0 0h-20a5 5 0 0 0-5 5v20a5 5 0 0 0 5 5H0a5 5 0 0 0 5-5V5a5 5 0 0 0-5-5" style="fill-opacity:1;fill-rule:nonzero;stroke:none" transform="translate(301 130)" fill="#FFFFFF" data-original="#ffffff"></path><path d="M0 0h-19c-35.899 0-65-29.101-65-65l74.5-22.25L65-65C65-29.101 35.898 0 0 0" style="fill-opacity:1;fill-rule:nonzero;stroke:none" transform="translate(265.5 485.5)" fill="#E4F5F9" data-original="#e4f5f9"></path><path d="M0 0h-30c0 17.95-7.28 34.2-19.04 45.96-10.54 10.54-24.69 17.48-40.43 18.8 1.8.16 3.63.24 5.47.24h19c17.95 0 34.2-7.28 45.96-19.04C-7.28 34.2 0 17.95 0 0" style="fill-opacity:1;fill-rule:nonzero;stroke:none" transform="translate(330.5 420.5)" fill="#C6E7F4" data-original="#c6e7f4"></path><path d="M0 0h177.377a14.998 14.998 0 0 0 14.23-10.257L198.189-30l-109.5-14.5-109.5 14.5 6.581 19.743A14.999 14.999 0 0 0 0 0" style="fill-opacity:1;fill-rule:nonzero;stroke:none" transform="translate(167.311 420.5)" fill="#E2E2E2" data-original="#e2e2e2"></path><path d="M0 0h-30l-6.58 19.74a14.9 14.9 0 0 1-6.21 7.93A14.92 14.92 0 0 1-50.81 30h30c6.46 0 12.19-4.13 14.23-10.26z" style="fill-opacity:1;fill-rule:nonzero;stroke:none" transform="translate(365.5 390.5)" fill="#C6C6C6" data-original="#c6c6c6"></path><path d="M0 0h-117.377a14.998 14.998 0 0 0-14.23 10.257L-138.189 30l77.501 11 81.499-11-6.581-19.743A14.999 14.999 0 0 0 0 0" style="fill-opacity:1;fill-rule:nonzero;stroke:none" transform="translate(314.689 305.5)" fill="#E2E2E2" data-original="#e2e2e2"></path><path d="m0 0-6.58-19.74A14.991 14.991 0 0 0-20.81-30h-30c6.46 0 12.19 4.13 14.23 10.26L-30 0Z" style="fill-opacity:1;fill-rule:nonzero;stroke:none" transform="translate(335.5 335.5)" fill="#C6C6C6" data-original="#c6c6c6"></path><path d="M0 0h-266c-15.188 0-27.5 12.312-27.5 27.5S-281.188 55-266 55H0c15.188 0 27.5-12.312 27.5-27.5S15.188 0 0 0" style="fill-opacity:1;fill-rule:nonzero;stroke:none" transform="translate(389 335.5)" fill="#B3B3FF" data-original="#b3b3ff" class=""></path><path d="M0 0c0-7.6-3.08-14.47-8.05-19.45-4.98-4.97-11.85-8.05-19.45-8.05h-30c7.6 0 14.47 3.08 19.45 8.05C-33.08-14.47-30-7.6-30 0c0 13.78-10.13 25.19-23.35 27.19h-.01c-1.35.2-2.73.31-4.14.31h30C-12.31 27.5 0 15.19 0 0" style="fill-opacity:1;fill-rule:nonzero;stroke:none" transform="translate(416.5 363)" fill="#9797F7" data-original="#9797f7" class=""></path><path d="M0 0v71c0 2.75 2.25 5 5 5h11.326c11.149 0 21.379-6.215 26.562-16.087l6.952-13.226A19.985 19.985 0 0 1 67.548 36h1.749c11.685 0 22.306-6.817 27.219-17.418l7.652-16.496C105.703-1.228 103.284-5 99.631-5H5a5 5 0 0 0-5 5" style="fill-opacity:1;fill-rule:nonzero;stroke:none" transform="translate(7.5 229.5)" fill="#E4F5F9" data-original="#e4f5f9"></path><path d="M0 0h-30c3.65 0 6.07 3.77 4.54 7.09l-7.65 16.49C-38.03 34.18-48.65 41-60.33 41h-1.75a19.98 19.98 0 0 0-17.71 10.69l-6.95 13.22a30.018 30.018 0 0 1-12.63 12.64c.65 2 2.53 3.45 4.74 3.45h11.33c11.15 0 21.38-6.22 26.56-16.09l6.95-13.22A19.98 19.98 0 0 1-32.08 41h1.75c11.68 0 22.3-6.82 27.22-17.42L4.54 7.09C6.07 3.77 3.65 0 0 0" style="fill-opacity:1;fill-rule:nonzero;stroke:none" transform="translate(107.13 224.5)" fill="#C6E7F4" data-original="#c6e7f4"></path><path d="M0 0v71c0 2.75-2.25 5-5 5h-11.689c-11.149 0-21.379-6.215-26.562-16.087l-6.952-13.226A19.985 19.985 0 0 0-67.911 36h-1.749c-11.684 0-22.306-6.817-27.219-17.418l-7.652-16.496C-106.066-1.228-103.646-5-99.994-5H-5c2.75 0 5 2.25 5 5" style="fill-opacity:1;fill-rule:nonzero;stroke:none" transform="translate(504.5 229.5)" fill="#E4F5F9" data-original="#e4f5f9"></path><path d="M0 0v-71c0-2.75-2.25-5-5-5h-30c2.75 0 5 2.25 5 5V0c0 .6-.11 1.18-.31 1.71C-26.16 3.83-21.51 5-16.69 5H-5c2.75 0 5-2.25 5-5" style="fill-opacity:1;fill-rule:nonzero;stroke:none" transform="translate(504.5 300.5)" fill="#C6E7F4" data-original="#c6e7f4"></path><path d="M0 0h-410.5c-8.284 0-15 6.716-15 15v15h497V15c0-8.25-6.75-15-15-15H35" style="stroke-linecap: round; stroke-linejoin: round; stroke-miterlimit: 10; stroke-dasharray: none; stroke-opacity: 1;" transform="translate(433 26.5)" fill="none" stroke="#000000" stroke-width="15px" stroke-linecap="round" stroke-linejoin="round" stroke-miterlimit="10" stroke-dasharray="none" stroke-opacity="" data-original="#000000"></path><path d="M0 0v50.25" style="stroke-linecap: round; stroke-linejoin: round; stroke-miterlimit: 10; stroke-dasharray: none; stroke-opacity: 1;" transform="translate(176 139.75)" fill="none" stroke="#000000" stroke-width="15px" stroke-linecap="round" stroke-linejoin="round" stroke-miterlimit="10" stroke-dasharray="none" stroke-opacity="" data-original="#000000"></path><path d="M0 0v17.75" style="stroke-linecap: round; stroke-linejoin: round; stroke-miterlimit: 10; stroke-dasharray: none; stroke-opacity: 1;" transform="translate(176 87)" fill="none" stroke="#000000" stroke-width="15px" stroke-linecap="round" stroke-linejoin="round" stroke-miterlimit="10" stroke-dasharray="none" stroke-opacity="" data-original="#000000"></path><path d="M0 0v-103" style="stroke-linecap: round; stroke-linejoin: round; stroke-miterlimit: 10; stroke-dasharray: none; stroke-opacity: 1;" transform="translate(336 190)" fill="none" stroke="#000000" stroke-width="15px" stroke-linecap="round" stroke-linejoin="round" stroke-miterlimit="10" stroke-dasharray="none" stroke-opacity="" data-original="#000000"></path><path d="M0 0h-193.155c-3.795 0-6.206 4.062-4.389 7.394l20.281 37.183A20 20 0 0 0-159.705 55H-33.45a20 20 0 0 0 17.558-10.423L4.389 7.394C6.207 4.062 3.795 0 0 0Z" style="stroke-linecap: round; stroke-linejoin: round; stroke-miterlimit: 10; stroke-dasharray: none; stroke-opacity: 1;" transform="translate(352.577 190)" fill="none" stroke="#000000" stroke-width="15px" stroke-linecap="round" stroke-linejoin="round" stroke-miterlimit="10" stroke-dasharray="none" stroke-opacity="" data-original="#000000"></path><path d="m0 0-10.854 21.708A15 15 0 0 1-24.271 30h-63.458a15 15 0 0 1-13.417-8.292L-112 0" style="stroke-linecap: round; stroke-linejoin: round; stroke-miterlimit: 10; stroke-dasharray: none; stroke-opacity: 1;" transform="translate(312 245)" fill="none" stroke="#000000" stroke-width="15px" stroke-linecap="round" stroke-linejoin="round" stroke-miterlimit="10" stroke-dasharray="none" stroke-opacity="" data-original="#000000"></path><path d="M0 0v68a5 5 0 0 0 5 5h30a5 5 0 0 0 5-5V0" style="stroke-linecap: round; stroke-linejoin: round; stroke-miterlimit: 10; stroke-dasharray: none; stroke-opacity: 1;" transform="translate(206 87)" fill="none" stroke="#000000" stroke-width="15px" stroke-linecap="round" stroke-linejoin="round" stroke-miterlimit="10" stroke-dasharray="none" stroke-opacity="" data-original="#000000"></path><path d="M0 0h-20a5 5 0 0 0-5 5v20a5 5 0 0 0 5 5H0a5 5 0 0 0 5-5V5a5 5 0 0 0-5-5Z" style="stroke-linecap: round; stroke-linejoin: round; stroke-miterlimit: 10; stroke-dasharray: none; stroke-opacity: 1;" transform="translate(301 130)" fill="none" stroke="#000000" stroke-width="15px" stroke-linecap="round" stroke-linejoin="round" stroke-miterlimit="10" stroke-dasharray="none" stroke-opacity="" data-original="#000000"></path><path d="M0 0v76h90.128a25 25 0 0 0 23.43-16.282l6.307-16.949A15 15 0 0 1 133.923 33h229.154a15 15 0 0 1 14.058 9.769l6.307 16.949A25 25 0 0 0 406.872 76H497V0" style="stroke-linecap: round; stroke-linejoin: round; stroke-miterlimit: 10; stroke-dasharray: none; stroke-opacity: 1;" transform="translate(7.5 53.5)" fill="none" stroke="#000000" stroke-width="15px" stroke-linecap="round" stroke-linejoin="round" stroke-miterlimit="10" stroke-dasharray="none" stroke-opacity="" data-original="#000000"></path><path d="M0 0v14.922c0 13.234-10.255 24.52-23.478 25.057-8.686.353-16.416-3.819-21.033-10.35-1.375-1.945-3.911-2.677-6.088-1.713a24.435 24.435 0 0 1-10.421 2.079C-74.439 29.716-85 18.371-85 4.949V0" style="stroke-linecap: round; stroke-linejoin: round; stroke-miterlimit: 10; stroke-dasharray: none; stroke-opacity: 1;" transform="translate(504.5 129.5)" fill="none" stroke="#000000" stroke-width="15px" stroke-linecap="round" stroke-linejoin="round" stroke-miterlimit="10" stroke-dasharray="none" stroke-opacity="" data-original="#000000"></path><path d="M0 0v14.922c0 13.234 10.255 24.52 23.478 25.057 8.686.353 16.416-3.819 21.033-10.35 1.375-1.945 3.911-2.677 6.088-1.713a24.435 24.435 0 0 0 10.421 2.079C74.439 29.716 85 18.371 85 4.949V0" style="stroke-linecap: round; stroke-linejoin: round; stroke-miterlimit: 10; stroke-dasharray: none; stroke-opacity: 1;" transform="translate(7.5 129.5)" fill="none" stroke="#000000" stroke-width="15px" stroke-linecap="round" stroke-linejoin="round" stroke-miterlimit="10" stroke-dasharray="none" stroke-opacity="" data-original="#000000"></path><path d="M0 0h-266c-15.188 0-27.5 12.312-27.5 27.5v0c0 15.188 12.312 27.5 27.5 27.5H0c15.188 0 27.5-12.312 27.5-27.5v0C27.5 12.312 15.188 0 0 0Z" style="stroke-linecap: round; stroke-linejoin: round; stroke-miterlimit: 10; stroke-dasharray: none; stroke-opacity: 1;" transform="translate(389 335.5)" fill="none" stroke="#000000" stroke-width="15px" stroke-linecap="round" stroke-linejoin="round" stroke-miterlimit="10" stroke-dasharray="none" stroke-opacity="" data-original="#000000"></path><path d="m0 0-6.581-19.743A15 15 0 0 0-20.811-30h-117.378a15 15 0 0 0-14.23 10.257L-159 0" style="stroke-linecap: round; stroke-linejoin: round; stroke-miterlimit: 10; stroke-dasharray: none; stroke-opacity: 1;" transform="translate(335.5 335.5)" fill="none" stroke="#000000" stroke-width="15px" stroke-linecap="round" stroke-linejoin="round" stroke-miterlimit="10" stroke-dasharray="none" stroke-opacity="" data-original="#000000"></path><path d="m0 0 6.581 19.743A15 15 0 0 0 20.811 30h177.378a15 15 0 0 0 14.23-10.257L219 0" style="stroke-linecap: round; stroke-linejoin: round; stroke-miterlimit: 10; stroke-dasharray: none; stroke-opacity: 1;" transform="translate(146.5 390.5)" fill="none" stroke="#000000" stroke-width="15px" stroke-linecap="round" stroke-linejoin="round" stroke-miterlimit="10" stroke-dasharray="none" stroke-opacity="" data-original="#000000"></path><path d="M0 0c0 35.898-29.101 65-65 65h-19c-35.899 0-65-29.102-65-65" style="stroke-linecap: round; stroke-linejoin: round; stroke-miterlimit: 10; stroke-dasharray: none; stroke-opacity: 1;" transform="translate(330.5 420.5)" fill="none" stroke="#000000" stroke-width="15px" stroke-linecap="round" stroke-linejoin="round" stroke-miterlimit="10" stroke-dasharray="none" stroke-opacity="" data-original="#000000"></path><path d="M0 0h-37.667" style="stroke-linecap: round; stroke-linejoin: round; stroke-miterlimit: 10; stroke-dasharray: none; stroke-opacity: 1;" transform="translate(163 363)" fill="none" stroke="#000000" stroke-width="15px" stroke-linecap="round" stroke-linejoin="round" stroke-miterlimit="10" stroke-dasharray="none" stroke-opacity="" data-original="#000000"></path><path d="M0 0h37.667" style="stroke-linecap: round; stroke-linejoin: round; stroke-miterlimit: 10; stroke-dasharray: none; stroke-opacity: 1;" transform="translate(349 363)" fill="none" stroke="#000000" stroke-width="15px" stroke-linecap="round" stroke-linejoin="round" stroke-miterlimit="10" stroke-dasharray="none" stroke-opacity="" data-original="#000000"></path><path d="M0 0h126" style="stroke-linecap: round; stroke-linejoin: round; stroke-miterlimit: 10; stroke-dasharray: none; stroke-opacity: 1;" transform="translate(193 363)" fill="none" stroke="#000000" stroke-width="15px" stroke-linecap="round" stroke-linejoin="round" stroke-miterlimit="10" stroke-dasharray="none" stroke-opacity="" data-original="#000000"></path><path d="M0 0v71c0 2.75 2.25 5 5 5h11.326c11.149 0 21.379-6.215 26.562-16.087l6.952-13.226A19.985 19.985 0 0 1 67.548 36h1.749c11.685 0 22.306-6.817 27.219-17.418l7.652-16.496C105.703-1.228 103.284-5 99.631-5H5a5 5 0 0 0-5 5Z" style="stroke-linecap: round; stroke-linejoin: round; stroke-miterlimit: 10; stroke-dasharray: none; stroke-opacity: 1;" transform="translate(7.5 229.5)" fill="none" stroke="#000000" stroke-width="15px" stroke-linecap="round" stroke-linejoin="round" stroke-miterlimit="10" stroke-dasharray="none" stroke-opacity="" data-original="#000000"></path><path d="M0 0v71c0 2.75-2.25 5-5 5h-11.689c-11.149 0-21.379-6.215-26.562-16.087l-6.952-13.226A19.985 19.985 0 0 0-67.911 36h-1.749c-11.684 0-22.306-6.817-27.219-17.418l-7.652-16.496C-106.066-1.228-103.646-5-99.994-5H-5c2.75 0 5 2.25 5 5z" style="stroke-linecap: round; stroke-linejoin: round; stroke-miterlimit: 10; stroke-dasharray: none; stroke-opacity: 1;" transform="translate(504.5 229.5)" fill="none" stroke="#000000" stroke-width="15px" stroke-linecap="round" stroke-linejoin="round" stroke-miterlimit="10" stroke-dasharray="none" stroke-opacity="" data-original="#000000"></path></g></g></svg>