<svg xmlns="http://www.w3.org/2000/svg" version="1.1" xmlns:xlink="http://www.w3.org/1999/xlink" width="512" height="512" x="0" y="0" viewBox="0 0 495.978 496.246" style="enable-background:new 0 0 512 512" xml:space="preserve" class=""><g><path fill="#AAB2BD" d="M375.978 400.246v32c0 17.69-18.74 33.46-48 43.71v-32c29.26-10.25 48-26.02 48-43.71zM295.978 452.176v32c-14.82 2.62-31.03 4.07-48 4.07-70.69 0-128-25.07-128-56v-32c0 30.93 57.31 56 128 56 16.97 0 33.18-1.45 48-4.07z" opacity="1" data-original="#aab2bd"></path><path fill="#CCD1D9" d="M327.978 443.956c-9.63 3.38-20.39 6.16-32 8.22-14.82 2.62-31.03 4.07-48 4.07-70.69 0-128-25.07-128-56 0-15.14 13.73-28.87 36.04-38.95l2.23 2.79c6.3 7.87 9.73 17.65 9.73 27.74v.42c0 17.67 35.82 32 80 32s80-14.33 80-32c0-5.17.9-10.26 2.63-15.05s4.27-9.29 7.57-13.27l2.07-2.49c22.13 10.06 35.73 23.74 35.73 38.81 0 17.69-18.74 33.46-48 43.71z" opacity="1" data-original="#ccd1d9" class=""></path><circle cx="87.978" cy="88.246" r="64" fill="#E0B152" opacity="1" data-original="#cf9e76" class=""></circle><circle cx="455.978" cy="40.246" r="16" fill="#4FC1E9" opacity="1" data-original="#4fc1e9"></circle><circle cx="423.978" cy="328.246" r="16" fill="#4FC1E9" opacity="1" data-original="#4fc1e9"></circle><circle cx="55.978" cy="200.246" r="16" fill="#4FC1E9" opacity="1" data-original="#4fc1e9"></circle><circle cx="103.978" cy="296.246" r="32" fill="#4FC1E9" opacity="1" data-original="#4fc1e9"></circle><circle cx="423.978" cy="200.246" r="64" fill="#E0B152" opacity="1" data-original="#dfb28b" class=""></circle><path fill="#D3A06C" d="M463.978 200.246c10.06 0 18.67 6.19 22.24 14.97-3.1 12.94-10.13 24.35-19.76 32.9-.82.09-1.64.13-2.48.13-13.25 0-24-10.75-24-24s10.75-24 24-24zM447.728 140.796c.17 1.13.25 2.28.25 3.45 0 13.25-10.75 24-24 24s-24-10.75-24-24c0-1.17.08-2.32.25-3.45 7.34-2.94 15.36-4.55 23.75-4.55s16.41 1.61 23.75 4.55zM391.978 208.246c0 13.07-10.44 23.69-23.44 23.99-5.45-9.41-8.56-20.33-8.56-31.99 0-5.24.63-10.33 1.82-15.2 1.98-.52 4.04-.8 6.18-.8 13.25 0 24 10.75 24 24z" opacity="1" data-original="#d3a06c" class=""></path><path fill="#AAB2BD" d="M327.978 184.246v48c0-8.84-7.16-16-16-16s-16 7.16-16 16v-48zM327.978 232.246v84.52c-2.4 1.88-4.41 4.3-5.83 7.14l-7.44 14.87a9.886 9.886 0 0 1-8.84 5.47c-2.73 0-5.2-1.11-6.99-2.9s-2.9-4.26-2.9-6.99v-102.11c0 8.84 7.16 16 16 16s16-7.16 16-16zM199.978 326.196v8.16c0 5.46-4.43 9.89-9.89 9.89a9.887 9.887 0 0 1-8.84-5.47l-6.91-13.8a22.9 22.9 0 0 0-6.37-7.8l.01-.01v-84.92c0 8.84 7.16 16 16 16s16-7.16 16-16z" opacity="1" data-original="#aab2bd"></path><path fill="#AAB2BD" d="M199.978 184.246v48c0-8.84-7.16-16-16-16s-16 7.16-16 16v-48z" opacity="1" data-original="#aab2bd"></path><path fill="#CCD1D9" d="M295.978 232.246v93.95c0-7.71-6.24-13.95-13.95-13.95-3 0-5.83.96-8.15 2.63s-4.13 4.06-5.08 6.91l-10.29 30.87a11.1 11.1 0 0 1-10.53 7.59c-2.39 0-4.64-.76-6.49-2.1a11.001 11.001 0 0 1-4.04-5.49l-10.29-30.87c-1.9-5.7-7.23-9.54-13.23-9.54-3.85 0-7.34 1.56-9.87 4.08a13.947 13.947 0 0 0-4.08 9.87v-189.95h96v48z" opacity="1" data-original="#ccd1d9" class=""></path><path fill="#E6E9ED" d="M279.978 104.246v-48h-64v48l-16 32h96z" opacity="1" data-original="#e6e9ed" class=""></path><path fill="#FF826E" d="M327.978 178.136v6.11h-32v-6.11c0-5.48 1.55-10.73 4.32-15.22 2.78-4.49 6.78-8.22 11.68-10.67 9.81 4.9 16 14.93 16 25.89zM199.978 178.136v6.11h-32v-6.11a28.94 28.94 0 0 1 16-25.89c4.9 2.45 8.9 6.18 11.68 10.67 2.77 4.49 4.32 9.74 4.32 15.22z" opacity="1" data-original="#ff826e" class=""></path><circle cx="311.978" cy="232.246" r="16" fill="#FCD770" opacity="1" data-original="#fcd770" class=""></circle><circle cx="183.978" cy="232.246" r="16" fill="#FCD770" opacity="1" data-original="#fcd770" class=""></circle><path fill="#69D6F4" d="M327.978 316.766c.62-.5 1.27-.95 1.95-1.37 3.27-2.02 7.09-3.15 11.09-3.15 5.24 0 9.98 2.12 13.41 5.55s5.55 8.17 5.55 13.41c0 3.3-.86 6.55-2.5 9.41l-17.23 20.82-2.07 2.49c-3.3 3.98-5.84 8.48-7.57 13.27s-2.63 9.88-2.63 15.05c0 17.67-35.82 32-80 32s-80-14.33-80-32v-.42c0-10.09-3.43-19.87-9.73-27.74l-2.23-2.79-16.15-20.18c-1.26-1.57-2.23-3.34-2.89-5.22s-1-3.87-1-5.88c0-4.91 1.99-9.35 5.2-12.57 3.22-3.21 7.66-5.2 12.57-5.2 5.26 0 10.24 1.79 14.22 4.93a22.9 22.9 0 0 1 6.37 7.8l6.91 13.8a9.887 9.887 0 0 0 8.84 5.47c5.46 0 9.89-4.43 9.89-9.89v-8.16c0-3.85 1.56-7.34 4.08-9.87 2.53-2.52 6.02-4.08 9.87-4.08 6 0 11.33 3.84 13.23 9.54l10.29 30.87c.75 2.27 2.19 4.16 4.04 5.49 1.85 1.34 4.1 2.1 6.49 2.1a11.1 11.1 0 0 0 10.53-7.59l10.29-30.87c.95-2.85 2.76-5.24 5.08-6.91s5.15-2.63 8.15-2.63c7.71 0 13.95 6.24 13.95 13.95v8.16c0 2.73 1.11 5.2 2.9 6.99s4.26 2.9 6.99 2.9c3.74 0 7.17-2.12 8.84-5.47l7.44-14.87c1.42-2.84 3.43-5.26 5.83-7.14z" opacity="1" data-original="#69d6f4" class=""></path><path fill="#FF826E" d="M327.978 443.956v32c-9.63 3.38-20.39 6.16-32 8.22v-32c11.61-2.06 22.37-4.84 32-8.22zM279.978 49.226v7.02h-64v-7.02c0-9.69 3.3-18.76 8.95-26a42.201 42.201 0 0 1 23.05-14.98c18.81 4.7 32 21.6 32 40.98z" opacity="1" data-original="#ff826e" class=""></path><path d="m352.799 358.814 11.283-13.626.343-.6a27.009 27.009 0 0 0 3.553-13.378c0-14.868-12.096-26.964-26.964-26.964-1.712 0-3.392.164-5.036.448v-126.56c0-14.084-7.825-26.746-20.422-33.044l-3.578-1.789-3.578 1.789a37.457 37.457 0 0 0-4.422 2.605v-13.338l-16-32V49.231A50.173 50.173 0 0 0 249.918.485L247.978 0l-1.94.485a50.174 50.174 0 0 0-38.06 48.746v53.126l-16 32v13.338a37.676 37.676 0 0 0-4.422-2.605l-3.578-1.789-3.578 1.789c-12.597 6.298-20.422 18.96-20.422 33.044v126.741a31.44 31.44 0 0 0-6.232-.629c-4.009 0-7.806.921-11.193 2.561a39.88 39.88 0 0 0 1.425-10.561c0-22.056-17.944-40-40-40s-40 17.944-40 40 17.944 40 40 40a39.785 39.785 0 0 0 24.073-8.08 25.66 25.66 0 0 0-.073 1.847 25.862 25.862 0 0 0 5.646 16.097l9.969 12.462c-20.476 11.355-31.616 25.927-31.616 41.674v32c0 18.332 15.017 34.998 42.284 46.927 25.165 11.009 58.447 17.073 93.716 17.073s68.551-6.063 93.716-17.073c27.267-11.93 42.284-28.595 42.284-46.927v-32c.001-15.629-10.982-30.113-31.178-41.432zM191.978 192.246v17.376c-2.504-.888-5.195-1.376-8-1.376s-5.496.488-8 1.376v-17.376zm16-48h32v48h-32zm64-80v32h-48v-32zm3.055 48 8 16h-70.111l8-16zm44.945 97.376c-2.504-.888-5.195-1.376-8-1.376s-5.496.488-8 1.376v-17.376h16zm0 22.624c0 4.411-3.589 8-8 8s-8-3.589-8-8 3.589-8 8-8 8 3.589 8 8zm-32-40h-32v-48h32zm-104 32c4.411 0 8 3.589 8 8s-3.589 8-8 8-8-3.589-8-8 3.589-8 8-8zm0 32c2.805 0 5.496-.488 8-1.376v79.487a1.89 1.89 0 0 1-1.889 1.889c-.72 0-1.367-.4-1.689-1.044l-6.902-13.803a31.243 31.243 0 0 0-5.52-7.771V254.87a23.885 23.885 0 0 0 8 1.376zm24-48h32v96h16v-96h32v96.826a21.92 21.92 0 0 0-26.768 14.181l-10.292 30.874c-.423 1.268-1.604 2.119-2.94 2.119s-2.518-.852-2.94-2.119l-10.292-30.874a21.92 21.92 0 0 0-26.768-14.181zm96 46.624c2.504.888 5.195 1.376 8 1.376s5.496-.488 8-1.376v58.366a29.269 29.269 0 0 0-4.985 7.092l-7.438 14.875a1.877 1.877 0 0 1-1.688 1.043 1.89 1.89 0 0 1-1.889-1.889zm8-93.21c4.528 3.538 7.393 8.781 7.908 14.586H304.07c.515-5.806 3.38-11.048 7.908-14.586zm-64-145.107a34.186 34.186 0 0 1 23.98 31.693h-47.96a34.185 34.185 0 0 1 23.98-31.693zm-64 145.107c4.528 3.538 7.393 8.781 7.908 14.586H176.07c.515-5.806 3.38-11.048 7.908-14.586zm-30.233 158.586a14.947 14.947 0 0 1 13.442 8.308l6.902 13.803c3.05 6.1 9.18 9.889 16 9.889 9.864 0 17.889-8.025 17.889-17.889v-8.164a5.954 5.954 0 0 1 5.947-5.947 5.94 5.94 0 0 1 5.642 4.066l10.292 30.874c2.604 7.812 9.885 13.06 18.119 13.06s15.516-5.248 18.119-13.06l10.292-30.874a5.94 5.94 0 0 1 5.642-4.066 5.954 5.954 0 0 1 5.947 5.947v8.164c0 9.864 8.025 17.889 17.889 17.889 6.82 0 12.95-3.789 16-9.889l7.437-14.874a13.023 13.023 0 0 1 11.711-7.238c6.045 0 10.964 4.918 10.964 10.964 0 1.705-.4 3.392-1.163 4.913l-18.794 22.698a52.52 52.52 0 0 0-12.043 33.426c0 9.786-28.048 24-72 24s-72-14.214-72-24v-.422a52.606 52.606 0 0 0-11.484-32.74l-18.375-22.969a9.805 9.805 0 0 1-2.14-6.102c-.002-5.385 4.38-9.767 9.765-9.767zm-49.767 0c-13.233 0-24-10.767-24-24s10.767-24 24-24 24 10.767 24 24-10.767 24-24 24zm56.697 144.269c-20.779-9.091-32.697-20.853-32.697-32.269v-1.139c6.763 5.961 15.573 11.38 26.284 16.066 25.165 11.009 58.447 17.073 93.716 17.073 13.76 0 27.209-.935 40-2.715v15.847c-12.69 1.878-26.156 2.868-40 2.868-33.111 0-64.116-5.587-87.303-15.731zm159.303 5.672a191.982 191.982 0 0 1-16 4.25v-15.643a218.473 218.473 0 0 0 16-3.915zm16-5.984v-14.682a151.661 151.661 0 0 0 5.716-2.348c10.71-4.686 19.521-10.105 26.284-16.066v1.139c0 11.287-11.655 22.91-32 31.957zm-.697-31.688c-23.188 10.145-54.192 15.731-87.303 15.731s-64.116-5.587-87.303-15.731c-20.779-9.091-32.697-20.853-32.697-32.269 0-10.024 9.275-20.385 25.675-28.918a36.56 36.56 0 0 1 6.325 20.496v.422c0 12.041 10.107 22.714 28.46 30.055 16.032 6.413 37.177 9.945 59.54 9.945s43.507-3.532 59.54-9.945c18.353-7.341 28.46-18.015 28.46-30.055a36.495 36.495 0 0 1 6.535-20.807c16.266 8.512 25.465 18.833 25.465 28.807 0 11.416-11.918 23.178-32.697 32.269z" fill="#000000" opacity="1" data-original="#000000" class=""></path><path d="m224.388 402.776 15.179-5.06c-5.801-17.404-19.655-31.258-37.06-37.06l-5.06 15.179c12.653 4.218 22.724 14.289 26.941 26.941zM298.508 375.835l-5.06-15.179c-17.404 5.801-31.258 19.655-37.06 37.06l15.179 5.06c4.217-12.652 14.289-22.723 26.941-26.941zM67.79 157.345a71.754 71.754 0 0 0 20.188 2.901c39.701 0 72-32.299 72-72a71.754 71.754 0 0 0-2.901-20.188c3.124-4.761 5.935-9.427 8.364-13.938 15.313-28.439 11.063-41.875 4.8-48.137-14.221-14.223-43.728 1.132-62.079 13.163a71.761 71.761 0 0 0-20.184-2.9c-39.701 0-72 32.299-72 72a71.761 71.761 0 0 0 2.9 20.184C6.846 126.781-8.508 156.286 5.715 170.509c3.091 3.092 7.929 5.693 15.458 5.692 7.723 0 18.278-2.738 32.679-10.492 4.511-2.429 9.177-5.24 13.938-8.364zm76.188-69.099c0 30.878-25.122 56-56 56-.67 0-1.333-.027-1.996-.051 10.208-8.033 20.569-17.245 30.635-27.311s19.278-20.427 27.311-30.635c.023.665.05 1.328.05 1.997zm14.949-70.949c1.477 1.477 2.996 9.609-7.574 29.238a154.433 154.433 0 0 1-2.161 3.863 72.541 72.541 0 0 0-23.377-23.373c20.217-11.7 30.907-11.933 33.112-9.728zM87.978 32.246c22.896 0 42.615 13.818 51.286 33.547-9.182 12.971-20.782 26.599-33.961 39.778s-26.808 24.779-39.778 33.961c-19.729-8.672-33.547-28.39-33.547-51.286 0-30.878 25.121-56 56-56zM17.029 159.195c-2.205-2.205-1.972-12.895 9.728-33.112A72.551 72.551 0 0 0 50.13 149.46c-1.3.75-2.59 1.476-3.863 2.161-19.629 10.57-27.761 9.051-29.238 7.574zM31.978 200.246c0 13.234 10.766 24 24 24s24-10.766 24-24-10.766-24-24-24-24 10.766-24 24zm32 0c0 4.411-3.589 8-8 8s-8-3.589-8-8 3.589-8 8-8 8 3.589 8 8zM455.978 64.246c13.234 0 24-10.766 24-24s-10.766-24-24-24-24 10.766-24 24 10.766 24 24 24zm0-32c4.411 0 8 3.589 8 8s-3.589 8-8 8-8-3.589-8-8 3.589-8 8-8zM423.978 304.246c-13.234 0-24 10.766-24 24s10.766 24 24 24 24-10.766 24-24-10.766-24-24-24zm0 32c-4.411 0-8-3.589-8-8s3.589-8 8-8 8 3.589 8 8-3.589 8-8 8zM63.978 368.246h-16v16h-16v16h16v16h16v-16h16v-16h-16zM335.978 96.246h16v-16h16v-16h-16v-16h-16v16h-16v16h16z" fill="#000000" opacity="1" data-original="#000000" class=""></path><circle cx="135.978" cy="232.246" r="8" fill="#000000" opacity="1" data-original="#000000" class=""></circle><path d="M423.978 128.246c-39.701 0-72 32.299-72 72s32.299 72 72 72 72-32.299 72-72-32.299-72-72-72zm15.817 18.289c-1.117 7.739-7.774 13.711-15.817 13.711s-14.7-5.972-15.817-13.711a55.795 55.795 0 0 1 31.634 0zm-71.24 45.74c8.554.307 15.423 7.343 15.423 15.971 0 6.997-4.615 13.04-10.959 15.176a55.64 55.64 0 0 1-4.464-31.147zm13.267 44.772c10.708-5.213 18.156-16.236 18.156-28.801 0-15.868-11.611-29.068-26.781-31.568a56.355 56.355 0 0 1 20.127-23.262c3.953 13.189 16.196 22.83 30.654 22.83s26.702-9.641 30.654-22.83c14.246 9.357 23.981 25.028 25.2 43.005a31.993 31.993 0 0 0-15.855-4.175c-17.645 0-32 14.355-32 32 0 11.381 5.977 21.386 14.951 27.06a55.66 55.66 0 0 1-22.951 4.94c-16.799 0-31.882-7.446-42.155-19.199zm81.338 3.158c-8.441-.43-15.182-7.412-15.182-15.958 0-8.822 7.178-16 16-16a15.938 15.938 0 0 1 13.726 7.765 56.063 56.063 0 0 1-14.544 24.193z" fill="#000000" opacity="1" data-original="#000000" class=""></path></g></svg>