<svg xmlns="http://www.w3.org/2000/svg" version="1.1" xmlns:xlink="http://www.w3.org/1999/xlink" width="512" height="512" x="0" y="0" viewBox="0 0 58 58" style="enable-background:new 0 0 512 512" xml:space="preserve"><g><path d="M6.83 45.465 5.044 48.05c-.105.16-.008.394.144.373 7.56-1.076 14.678-1.726 21.16-1.747.048 0 .089.032.12.074 1.4 1.993 2.55 1.929 4.135.384.032-.032.064-.043.096-.054 6.112-.287 13.801.118 22.117.8.169.01.25-.267.12-.405l-2.527-2.712-1.037-2.04a.252.252 0 0 0-.052-.067l-2.102-1.933c.776.038 1.55.091 2.324.173.408.061.637-.486.322-.768l-6.096-5.486c1.074-.491 2.206-.99 3.403-1.501a.409.409 0 0 0 .088-.694l-3.578-2.777a.388.388 0 0 0-.391-.047c-6.277 2.781-10.972 5.815-14.341 9.265-2.251-4.08-6.35-7.85-12.867-11.836a.383.383 0 0 0-.36-.023l-1.842.835a.408.408 0 0 0-.057.703c3.146 2.16 5.777 4.253 7.954 6.322-2.753-1.412-7.706-3.498-9.037-3.668-.228-.03-.502-.037-.646.15-.045.057-.457.504-3.295 3.398-.303.308-.166.857.256.964 3.475.887 6.612 1.809 9.455 2.878l-8.151 1.5a.197.197 0 0 0-.119.073l-2.835 3.598a.212.212 0 0 0-.024.22l-.551 1.463zm1.062-1.4c8.348-1.725 15.994-2.303 20.653.198l-1.057 1.275c-4.704-.842-12.052-.138-20.452.802l.856-2.274zm11.277-4.516c-.126 0-.229-.036-.229-.081 0-.046.103-.082.229-.082s.229.036.229.082c0 .045-.103.081-.23.081zm.319.621c.072 0 .13.024.13.054 0 .029-.058.053-.13.053s-.131-.024-.131-.053c0-.03.058-.054.13-.054zm.645-.298c0-.038.096-.07.213-.07.117 0 .212.032.212.07 0 .038-.095.07-.212.07-.117 0-.213-.032-.213-.07zm8.433 4.335c.011 0 .019-.01.03-.013l.002.005-.017.02-.015-.012zm1.156-.59a41.347 41.347 0 0 1 2.194-.797c5.442-.826 10.86-.635 17.037.598.11.023.112.003.201-.025l1.453 2.824c-8.528-.735-15.451-1.227-20.33-.4L29.1 44.382c.191-.255.401-.51.622-.763zm-1.438 4.062a2.26 2.26 0 0 1-1.646-1.078 5.237 5.237 0 0 0 1.893.439l-.401.164c.674.092 1.381.082 2.012-.174a2.26 2.26 0 0 1-1.858.65zm21.169-7.295c-3.533-.36-7.376-.246-11.026.34-3.92.528-5.428 1.154-7.948 2.086 1.496-1.5 3.528-2.999 6.206-4.559 1.923-.65 4.394-.841 5.927-.798h.007a.25.25 0 0 0 .007-.5 21.679 21.679 0 0 0-4.251.355 88.874 88.874 0 0 1 4.901-2.438zm-6.024-10.276 3.398 2.636c-9.434 4.033-14.797 7.3-17.688 10.79l.002-4.121c3.324-3.465 7.998-6.51 14.288-9.305zM15.873 27.51c6.538 4.007 10.597 7.78 12.768 11.863l-.001 3.705c-2.386-4.98-6.995-9.724-14.397-14.83zm-6.716 7.609c3.181-3.245 3.296-3.395 3.288-3.406.814-.27 9.752 3.737 10.69 4.525 2.285 2.383 3.97 4.749 5.111 7.169C23.503 39.489 17.182 37.29 9.14 35.2c-.004-.011-.012-.052.018-.082zm.817 6.02c-.135.31-.155.654-.057.978l-.282-.127c.129.275.378.49.669.577l-.596.012c1.761.545 3.63-.145 5.438.005.013.001.05-.003.06.007.04.033-.028.048-.049.05-2.215.15-4.79.417-6.945.977-.025.006-.115.015-.13.034z" fill="#E0B152" opacity="1" data-original="#000000"></path><path d="M24.51 24.092c-.695 3.079-.376 5.475 1.062 6.242 1.853.985 4.38-1.117 5.834-2.664 4.906 4.75 8.298 2.675 6.597-3.933 2.86-.905 4.679-2.311 4.646-3.89-.034-1.628-2.029-2.999-5.088-3.773.12-.538.217-1.065.276-1.566.616-5.196-2.442-6.662-6.688-2.487-4.834-4.582-8.216-2.473-6.425 4.228-6.927 1.905-7.13 6.087-.214 7.843zm.507.119c1.19.267 2.497.443 3.874.52.694.96 1.42 1.833 2.158 2.588-4.368 4.65-7.469 3.292-6.032-3.108zm3.542-8.153a27.12 27.12 0 0 1 5.258-.062 27.49 27.49 0 0 1 2.086 3.584 28.004 28.004 0 0 1-2.384 4.54c-1.499.161-2.859.197-4.361.126a27.834 27.834 0 0 1-2.61-4.499 27.115 27.115 0 0 1 2.011-3.689zm-2.286 3.084a22.45 22.45 0 0 1-.922-2.523c.8-.2 1.66-.363 2.567-.483a27.904 27.904 0 0 0-1.645 3.006zm7.167-3.686a28.927 28.927 0 0 0-4.521.062 21.727 21.727 0 0 1 2.23-2.782c.77.773 1.547 1.69 2.291 2.72zm1.021.6c.883.096 1.72.234 2.493.408a22.086 22.086 0 0 1-.801 2.5 26.793 26.793 0 0 0-1.692-2.908zm1.73 4.135c.5 1.092.905 2.167 1.2 3.194a22.55 22.55 0 0 1-3.231.657 28.607 28.607 0 0 0 2.03-3.85zm-4.806 6.757a22.046 22.046 0 0 1-1.856-2.184c1.276.043 2.39.007 3.63-.104a22.642 22.642 0 0 1-1.774 2.288zm-2.87-2.742a22.932 22.932 0 0 1-3.384-.48c.269-1.065.655-2.204 1.149-3.37a29.036 29.036 0 0 0 2.235 3.85zm9.316 1.135c.77 5.048-2.08 5.846-6.09 1.958a23.602 23.602 0 0 0 2.062-2.703 23.126 23.126 0 0 0 3.721-.712c.128.5.235.989.307 1.457zm4.318-5.482c.027 1.319-1.674 2.551-4.281 3.38a23.858 23.858 0 0 0-1.416-3.68c.413-1.018.745-2.019.988-2.978 2.805.711 4.68 1.91 4.709 3.278zm-4.808-5.41c-.057.484-.15.993-.267 1.514a22.867 22.867 0 0 0-2.978-.454 23.263 23.263 0 0 0-2.587-3.142c3.678-3.609 6.421-2.897 5.832 2.081zm-12.484.038c-.734-4.81 1.855-5.964 5.933-2.098-.869.907-1.719 1.987-2.514 3.194a24.013 24.013 0 0 0-3.069.538c-.15-.563-.27-1.111-.35-1.634zm.01 2.255c.287.97.667 1.978 1.13 3a24.07 24.07 0 0 0-1.366 3.863c-6.355-1.62-6.246-5.075.235-6.863zM8.461 11.29a.25.25 0 0 0-.082.344l8.91 14.464c.17.276.602.023.426-.262l-8.91-14.464a.25.25 0 0 0-.344-.082zM43.86 27.842c.3 0-.168.53 6.759-13.563a.25.25 0 1 0-.45-.218l-6.534 13.422a.25.25 0 0 0 .225.359z" fill="#E0B152" opacity="1" data-original="#000000"></path><path d="M16.588 17.881a.25.25 0 0 0-.135.326l3.28 7.95a.25.25 0 0 0 .463-.19l-3.28-7.95a.25.25 0 0 0-.328-.136zM44.585 20.709a.25.25 0 0 0-.324.141l-1.717 4.386a.25.25 0 1 0 .464.183l1.718-4.386a.25.25 0 0 0-.141-.324zM22.364 37.286c-2.09-1.192-5.599-2.193-7.921-2.757a.256.256 0 0 0-.302.184.25.25 0 0 0 .185.302c2.265.55 5.756 1.545 7.79 2.705.29.163.533-.272.248-.434zM29.835 41.859c.089.045.199-.118.25-.168 2.213-2.103 3.619-2.726 3.555-2.845-.036-.065-.173.041-.208.063-.957.59-1.95 1.43-3.131 1.634.25-.163.48-.355.686-.57-.383.038-.746.092-1.13.092l-.065 1.526c-.005.1-.048.222.043.268zM34.002 44.432c6.282-1.057 10.875.514 11.165.514.29 0 .347-.415.063-.492a27.014 27.014 0 0 0-11.312-.514c-.33.054-.238.557.084.492zM14.05 44.73a.27.27 0 0 0 .056-.005c2.242-.51 4.538-.428 6.757-.35l.6.022c.13-.008.253-.104.258-.242a.25.25 0 0 0-.241-.258l-.599-.02c-2.253-.083-4.58-.164-6.886.36a.25.25 0 0 0 .056.494zM42.823 31.52c-.034-.057-.2-.103-.37-.103s-.283.046-.249.104.2.103.37.103c.171 0 .282-.046.249-.103zM43.63 31.862c-.018-.03-.092-.053-.165-.053s-.12.024-.102.053c.017.03.09.053.164.053s.12-.024.102-.053zM42.41 32.152c.031.053.17.096.308.096.14 0 .227-.043.196-.096-.031-.054-.17-.097-.309-.097s-.226.043-.195.097zM31.52 22.207a2.163 2.163 0 1 0-.855-4.24 2.163 2.163 0 0 0 .855 4.24zm1.432-2.09c-.19 0-.189-.285 0-.285.188 0 .188.286 0 .286zm-.079-.64c0 .085-.128.085-.128 0 0-.035.128-.084.128 0zm-2.149-1.307a1.987 1.987 0 0 0-.69 1.11l-.124-.218c-.034.505.083 1.02.332 1.46l-.322-.213c.037.577.392 1.182.867 1.513-.454.008-.812-.316-1.044-.7-.733-1.212-.175-2.658.981-2.952z" fill="#E0B152" opacity="1" data-original="#000000"></path></g></svg>