<svg xmlns="http://www.w3.org/2000/svg" version="1.1" xmlns:xlink="http://www.w3.org/1999/xlink" width="512" height="512" x="0" y="0" viewBox="0 0 512 512" style="enable-background:new 0 0 512 512" xml:space="preserve"><g><path fill="#232E7A" d="M512 256c0 141.385-114.615 256-256 256S0 397.385 0 256 114.615 0 256 0s256 114.615 256 256z" opacity="1" data-original="#232e7a"></path><path fill="#2B3894" d="M487.334 226.414c0 111.858-90.679 202.537-202.537 202.537S82.26 338.272 82.26 226.414 172.939 23.877 284.797 23.877s202.537 90.679 202.537 202.537z" opacity="1" data-original="#2b3894"></path><path fill="#3D4EC6" d="m402.399 309.47-11.869-11.869a5 5 0 0 1 0-7.071 5 5 0 0 1 7.071 0l11.869 11.869a5 5 0 1 1-7.071 7.071zm-346.792-9.929a5 5 0 0 0-7.071 0 5 5 0 0 0 0 7.071l91.924 91.924a5 5 0 0 0 7.071 0 5 5 0 0 0 0-7.071zm402.929 11.421a5 5 0 0 1-7.071 0l-52.426-52.426a5 5 0 1 1 7.071-7.071l52.427 52.426a5.002 5.002 0 0 1-.001 7.071zm-320 110.502a5 5 0 0 1-7.071 7.071l-15.962-15.962a5 5 0 0 1 7.071-7.071zm272.928-192.928a5 5 0 0 1 7.071-7.071l15.962 15.962a5 5 0 0 1-7.071 7.071zM368.536 81.464a5 5 0 0 1-7.071 7.071l-15.962-15.962a5 5 0 0 1 7.071-7.071zm-90 335.962a5 5 0 0 1-7.071 7.071l-15.962-15.962a5 5 0 0 1 7.071-7.071z" opacity="1" data-original="#3d4ec6"></path><path fill="#754CA0" d="M372 243.742c0 69.588-56.412 126-126 126s-126-56.412-126-126 56.412-126 126-126 126 56.412 126 126z" opacity="1" data-original="#754ca0"></path><path fill="#865CB2" d="M372 243.742c0 23.249-6.297 45.027-17.278 63.722-18.695 10.981-40.473 17.278-63.722 17.278-69.588 0-126-56.412-126-126 0-23.249 6.297-45.027 17.278-63.722 18.695-10.981 40.473-17.278 63.722-17.278 69.588 0 126 56.412 126 126z" opacity="1" data-original="#865cb2"></path><path fill="#754CA0" d="M265.198 295.008c0 3.854-6.484 6.979-14.482 6.979s-14.482-3.124-14.482-6.979 6.484-6.979 14.482-6.979 14.482 3.125 14.482 6.979zm16.626-78.663c-7.998 0-14.482 3.124-14.482 6.979s6.484 6.979 14.482 6.979 14.482-3.124 14.482-6.979-6.484-6.979-14.482-6.979zm-61.867 54.419c-5.691 0-10.305 2.223-10.305 4.966s4.614 4.966 10.305 4.966 10.305-2.223 10.305-4.966c0-2.742-4.613-4.966-10.305-4.966zm107.381-25.91c-5.691 0-10.305 2.223-10.305 4.966s4.614 4.966 10.305 4.966 10.305-2.223 10.305-4.966c0-2.742-4.613-4.966-10.305-4.966zm-67.459-76.763c-5.691 0-10.305 2.223-10.305 4.966s4.614 4.966 10.305 4.966 10.305-2.223 10.305-4.966c0-2.742-4.614-4.966-10.305-4.966zM328.92 270c-10.331 0-18.707 4.036-18.707 9.015s8.375 9.015 18.707 9.015 18.707-4.036 18.707-9.015c-.001-4.979-8.376-9.015-18.707-9.015zM227.871 135.461c-11.039 0-19.988 4.313-19.988 9.632 0 5.32 8.949 9.632 19.988 9.632s19.988-4.313 19.988-9.632c.001-5.319-8.948-9.632-19.988-9.632z" opacity="1" data-original="#754ca0"></path><path fill="#B9A1D3" d="M269.896 249.01a62.799 62.799 0 0 0-19.874 19.874c-.932 1.488-3.1 1.488-4.032 0a62.799 62.799 0 0 0-19.874-19.874c-1.488-.932-1.488-3.1 0-4.033a62.799 62.799 0 0 0 19.874-19.874c.932-1.488 3.1-1.488 4.032 0a62.799 62.799 0 0 0 19.874 19.874c1.488.933 1.488 3.101 0 4.033z" opacity="1" data-original="#b9a1d3"></path><path fill="#5766CE" d="M246 447c0 18.226-14.775 33-33 33s-33-14.774-33-33 14.775-33 33-33 33 14.774 33 33z" opacity="1" data-original="#5766ce"></path><path fill="#717ED6" d="M246 447a32.85 32.85 0 0 1-4.649 16.898 32.84 32.84 0 0 1-16.898 4.649c-18.225 0-33-14.774-33-33a32.85 32.85 0 0 1 4.649-16.898A32.85 32.85 0 0 1 213 414c18.225 0 33 14.774 33 33z" opacity="1" data-original="#717ed6"></path><path fill="#5766CE" d="M220.064 427.961c0 2.477-3.829 4.485-8.553 4.485s-8.553-2.008-8.553-4.485 3.829-4.485 8.553-4.485 8.553 2.008 8.553 4.485zm-4.596 26.208c-3.455 0-6.255 1.469-6.255 3.28s2.801 3.28 6.255 3.28c3.455 0 6.255-1.469 6.255-3.28s-2.8-3.28-6.255-3.28zm12.609-16.075c-6.479 0-11.731 2.754-11.731 6.152s5.252 6.152 11.731 6.152 11.731-2.754 11.731-6.152-5.252-6.152-11.731-6.152z" opacity="1" data-original="#5766ce"></path><path fill="#FFC14F" d="M81.421 84.35a5 5 0 1 1-7.071 7.071 5 5 0 0 1 7.071-7.071zm136.019 93.71c-3.954-4.53-8.769-7.781-13.958-9.754-9.938-3.778-19.12-9.3-26.638-16.818l-17.49-17.49c-1.846-1.847-4.846-2.145-6.859-.481a5.001 5.001 0 0 0-.363 7.402l22.158 22.158c2.285 2.285 1.805 6.114-.981 7.751l-.091.053a4.943 4.943 0 0 1-6.018-.752l-43.353-43.353a5 5 0 0 0-7.071 0 5 5 0 0 0 0 7.071L160.13 177.2a4.946 4.946 0 0 1 .752 6.018l-.054.091c-1.637 2.786-5.466 3.267-7.751.981l-22.006-22.006c-1.847-1.847-4.846-2.145-6.859-.482a5 5 0 0 0-.364 7.401l18.7 18.7c7.047 7.047 12.174 15.695 15.568 25.065a34.875 34.875 0 0 0 8.158 12.803c14.249 14.248 37.726 13.643 51.191-1.815 11.373-13.055 11.362-32.85-.025-45.896zm-86.521-65.425a5 5 0 0 0 0-7.071l-14.142-14.142a5 5 0 0 0-7.071 0 5 5 0 0 0 0 7.071l14.142 14.142a5.001 5.001 0 0 0 7.071 0z" opacity="1" data-original="#ffc14f"></path><path fill="#FFCD71" d="m408.552 159.427-11.23 11.898a5 5 0 0 0 .1 6.966l11.565 11.572c2.841 2.843 1.337 7.705-2.612 8.448l-16.079 3.025a5 5 0 0 0-4.014 5.695l2.555 16.16c.628 3.969-3.447 7.02-7.079 5.299l-14.786-7.003a5 5 0 0 0-6.595 2.247l-7.432 14.575c-1.826 3.58-6.915 3.653-8.842.126l-7.845-14.357a5 5 0 0 0-6.656-2.058l-14.58 7.423c-3.581 1.823-7.741-1.109-7.228-5.095l2.092-16.226a4.999 4.999 0 0 0-4.175-5.577l-16.159-2.564c-3.969-.63-5.611-5.448-2.853-8.37l11.23-11.898a5 5 0 0 0-.1-6.966l-11.565-11.572c-2.841-2.843-1.337-7.705 2.612-8.448l16.079-3.025a5 5 0 0 0 4.014-5.695l-2.555-16.16c-.628-3.969 3.447-7.02 7.079-5.299l14.786 7.003a5 5 0 0 0 6.595-2.247l7.432-14.575c1.826-3.58 6.915-3.653 8.842-.126l7.845 14.357a5 5 0 0 0 6.656 2.058l14.58-7.423c3.581-1.823 7.741 1.109 7.228 5.095l-2.092 16.226a4.999 4.999 0 0 0 4.175 5.577l16.158 2.564c3.971.629 5.613 5.447 2.854 8.37zM139.993 268.466c-1.513 4.253-6.371 6.266-10.448 4.328-6.474-3.078-13.229 3.677-10.151 10.151 1.938 4.077-.074 8.936-4.328 10.448-6.754 2.402-6.754 11.954 0 14.356 4.253 1.513 6.266 6.371 4.328 10.448-3.078 6.474 3.677 13.229 10.151 10.151 4.077-1.938 8.936.074 10.448 4.328 2.402 6.754 11.954 6.754 14.356 0 1.513-4.253 6.371-6.266 10.448-4.328 6.474 3.078 13.229-3.677 10.151-10.151-1.938-4.077.074-8.936 4.328-10.448 6.754-2.402 6.754-11.954 0-14.356-4.253-1.513-6.266-6.371-4.328-10.448 3.078-6.474-3.677-13.229-10.151-10.151-4.077 1.938-8.936-.074-10.448-4.328-2.402-6.754-11.954-6.754-14.356 0z" opacity="1" data-original="#ffcd71"></path><path fill="#FFF68E" d="M379.731 182.697c-4.253 1.513-6.266 6.371-4.328 10.448 3.077 6.475-3.677 13.229-10.151 10.151-4.077-1.938-8.936.075-10.448 4.328-2.402 6.754-11.954 6.754-14.356 0-1.513-4.253-6.371-6.266-10.448-4.328-6.474 3.078-13.229-3.676-10.151-10.151 1.938-4.077-.074-8.936-4.328-10.448-6.754-2.402-6.754-11.954 0-14.355 4.253-1.512 6.266-6.371 4.328-10.448-3.078-6.474 3.677-13.229 10.151-10.151 4.077 1.938 8.936-.075 10.448-4.328 2.402-6.754 11.954-6.754 14.356 0 1.512 4.253 6.371 6.266 10.448 4.328 6.474-3.078 13.229 3.677 10.151 10.151-1.938 4.077.075 8.936 4.328 10.448 6.755 2.401 6.755 11.953 0 14.355z" opacity="1" data-original="#fff68e"></path><path fill="#FF50B5" d="M349.204 158.387a49.139 49.139 0 0 0 15.555 15.555 1.862 1.862 0 0 1 0 3.156 49.139 49.139 0 0 0-15.555 15.555 1.862 1.862 0 0 1-3.156 0 49.139 49.139 0 0 0-15.555-15.555 1.862 1.862 0 0 1 0-3.156 49.139 49.139 0 0 0 15.555-15.555 1.862 1.862 0 0 1 3.156 0zM145.593 283.439a49.139 49.139 0 0 1-15.555 15.555 1.862 1.862 0 0 0 0 3.156 49.139 49.139 0 0 1 15.555 15.555 1.862 1.862 0 0 0 3.156 0 49.139 49.139 0 0 1 15.555-15.555 1.862 1.862 0 0 0 0-3.156 49.139 49.139 0 0 1-15.555-15.555 1.862 1.862 0 0 0-3.156 0z" opacity="1" data-original="#ff50b5"></path><path fill="#FF72C3" d="M81.185 399.169c-3.757 1.336-5.534 5.627-3.823 9.228 2.718 5.718-3.247 11.683-8.965 8.965-3.601-1.712-7.892.065-9.228 3.822-2.121 5.965-10.558 5.965-12.679 0-1.336-3.757-5.627-5.534-9.228-3.822-5.718 2.718-11.683-3.248-8.965-8.965 1.712-3.601-.066-7.892-3.822-9.228-5.965-2.122-5.965-10.558 0-12.679 3.757-1.336 5.534-5.627 3.822-9.228-2.718-5.718 3.247-11.684 8.965-8.965 3.601 1.711 7.892-.066 9.228-3.822 2.121-5.965 10.558-5.965 12.679 0 1.336 3.756 5.627 5.534 9.228 3.822 5.718-2.718 11.683 3.247 8.965 8.965-1.712 3.601.066 7.892 3.823 9.228 5.965 2.121 5.965 10.557 0 12.679zm400-312.679c-3.757-1.336-5.534-5.627-3.823-9.228 2.718-5.718-3.247-11.684-8.965-8.965-3.601 1.711-7.892-.066-9.228-3.822-2.121-5.965-10.558-5.965-12.679 0-1.336 3.756-5.627 5.534-9.228 3.822-5.718-2.718-11.683 3.247-8.965 8.965 1.712 3.601-.066 7.892-3.822 9.228-5.965 2.122-5.965 10.558 0 12.679 3.757 1.336 5.534 5.627 3.822 9.228-2.718 5.718 3.247 11.683 8.965 8.965 3.601-1.712 7.892.065 9.228 3.822 2.121 5.965 10.558 5.965 12.679 0 1.336-3.757 5.627-5.534 9.228-3.822 5.718 2.718 11.683-3.248 8.965-8.965-1.712-3.601.066-7.892 3.823-9.228 5.965-2.122 5.965-10.558 0-12.679z" opacity="1" data-original="#ff72c3"></path><path fill="#FF3C7D" d="M67.961 394.223a43.407 43.407 0 0 0-13.738 13.738 1.645 1.645 0 0 1-2.787 0 43.386 43.386 0 0 0-13.738-13.738 1.645 1.645 0 0 1 0-2.788 43.396 43.396 0 0 0 13.738-13.738 1.644 1.644 0 0 1 2.787 0 43.396 43.396 0 0 0 13.738 13.738 1.646 1.646 0 0 1 0 2.788zm400-302.787a43.407 43.407 0 0 1-13.738-13.738 1.644 1.644 0 0 0-2.787 0 43.396 43.396 0 0 1-13.738 13.738 1.645 1.645 0 0 0 0 2.788 43.396 43.396 0 0 1 13.738 13.738 1.645 1.645 0 0 0 2.787 0 43.386 43.386 0 0 1 13.738-13.738 1.646 1.646 0 0 0 0-2.788z" opacity="1" data-original="#ff3c7d"></path><path fill="#717ED6" d="M255 60H155c-8.284 0-15-6.716-15-15 0-8.284 6.716-15 15-15h100c8.284 0 15 6.716 15 15 0 8.284-6.716 15-15 15z" opacity="1" data-original="#717ed6"></path><path fill="#8C96DD" d="M255 60h-53.255c-8.284 0-15-6.716-15-15 0-8.284 6.716-15 15-15H255c8.284 0 15 6.716 15 15 0 8.284-6.716 15-15 15z" opacity="1" data-original="#8c96dd"></path><path fill="#20B7A1" d="M230.511 40H179.49a9.49 9.49 0 0 1-9.489-9.489C170 13.66 183.66 0 200.511 0h8.979C226.34 0 240 13.66 240 30.511c0 5.24-4.249 9.489-9.489 9.489z" opacity="1" data-original="#20b7a1"></path><path fill="#35E298" d="M240 30.511A9.49 9.49 0 0 1 230.511 40h-42.894v-9.489c0-15.385 11.386-28.109 26.192-30.207C228.614 2.401 240 15.126 240 30.511z" opacity="1" data-original="#35e298"></path><path fill="#20B7A1" d="m272.078 130.851-52.316-52.316a5 5 0 0 1 0-7.071 5 5 0 0 1 7.071 0l52.316 52.316a5 5 0 0 1 0 7.071 5 5 0 0 1-7.071 0zm-22.414 116.556a5 5 0 0 0 0 7.071l91.924 91.924a5 5 0 0 0 7.071 0 5 5 0 0 0 0-7.071l-91.924-91.924a5 5 0 0 0-7.071 0z" opacity="1" data-original="#20b7a1"></path><path fill="#7AF4AB" d="M248.276 92.907a5 5 0 1 1-7.071 7.071l-11.869-11.869a5 5 0 0 1 0-7.071 5 5 0 0 1 7.071 0zm42.128 8.557-11.869-11.869a5 5 0 0 0-7.071 7.071l11.869 11.869a5 5 0 1 0 7.071-7.071zm-96.136-25.826a5 5 0 0 0-7.071 0 5 5 0 0 0 0 7.071l11.869 11.869a5 5 0 0 0 7.071 0 5 5 0 0 0 0-7.071zm48.325 164.698a5 5 0 0 0 0 7.071l42.426 42.426a5 5 0 0 0 7.071 0 5 5 0 0 0 0-7.071l-42.426-42.426a5 5 0 0 0-7.071 0z" opacity="1" data-original="#7af4ab"></path><path fill="#FFF68E" d="M419.37 404.384c5.144 6.177 7.852 13.576 8.042 20.77-7.193-.19-14.593-2.897-20.77-8.042zm19.092-24.748-12.728 12.728c6.177 5.144 13.576 7.852 20.77 8.042-.191-7.195-2.898-14.593-8.042-20.77zm-56.568 56.568c6.177 5.144 13.576 7.852 20.769 8.042-.19-7.193-2.897-14.593-8.042-20.77z" opacity="1" data-original="#fff68e"></path><path fill="#65B1CF" d="m444.782 380.387-62.133 62.132c-3.515 3.515-9.242 3.58-12.759.066a54.327 54.327 0 0 1-1.672-1.747c-18.464-20.162-18.387-51.599.168-71.677 20.545-22.232 55.239-22.748 76.44-1.547l.065.065c3.49 3.504 3.387 9.212-.109 12.708z" opacity="1" data-original="#65b1cf"></path><path fill="#8CC5DB" d="m377.651 361.251 41.956 41.956a5.665 5.665 0 0 1 0 8.011l-6.131 6.131a5.665 5.665 0 0 1-8.011 0l-41.956-41.956c-4.618-4.618-5.595-11.498-2.932-17.074 5.575-2.664 12.456-1.686 17.074 2.932z" opacity="1" data-original="#8cc5db"></path><path fill="#A6D2E3" d="M399.01 396.752c-3.905 3.905-10.237 3.905-14.142 0l-21.359-21.359c-4.618-4.619-5.596-11.499-2.932-17.074 5.576-2.664 12.456-1.687 17.074 2.932l21.359 21.359c3.905 3.905 3.905 10.237 0 14.142z" opacity="1" data-original="#a6d2e3"></path><path fill="#FF3C7D" d="M207.286 217.287c-8.982 8.982-23.545 8.982-32.527 0s-8.982-23.545 0-32.527 23.545-8.982 32.527 0 8.982 23.545 0 32.527z" opacity="1" data-original="#ff3c7d"></path><path fill="#FF50B5" d="M207.286 217.287a22.896 22.896 0 0 1-10.619 6.037 22.892 22.892 0 0 1-10.619-6.037c-8.982-8.982-8.982-23.545 0-32.527a22.892 22.892 0 0 1 10.619-6.037 22.892 22.892 0 0 1 10.619 6.037c8.982 8.982 8.982 23.545 0 32.527z" opacity="1" data-original="#ff50b5"></path><path fill="#FF3C7D" d="M202.957 190.245c0 1.812-2.801 3.28-6.255 3.28-3.455 0-6.255-1.469-6.255-3.28 0-1.812 2.801-3.28 6.255-3.28 3.455 0 6.255 1.468 6.255 3.28zm-14.164 8.076c-3.455 0-6.255 1.469-6.255 3.28 0 1.812 2.801 3.28 6.255 3.28 3.455 0 6.255-1.469 6.255-3.28s-2.801-3.28-6.255-3.28zm9.159 9.16c-3.455 0-6.255 1.469-6.255 3.28 0 1.812 2.801 3.28 6.255 3.28 3.455 0 6.255-1.469 6.255-3.28.001-1.812-2.8-3.28-6.255-3.28z" opacity="1" data-original="#ff3c7d"></path><path fill="#FFF68E" d="M79.669 166.536a41.486 41.486 0 0 0-13.133 13.133 1.573 1.573 0 0 1-2.665 0 41.486 41.486 0 0 0-13.133-13.133 1.573 1.573 0 0 1 0-2.665 41.48 41.48 0 0 0 13.133-13.134 1.573 1.573 0 0 1 2.665 0 41.49 41.49 0 0 0 13.133 13.134 1.573 1.573 0 0 1 0 2.665zm399.781 41.135a30.933 30.933 0 0 1-9.792-9.792 1.173 1.173 0 0 0-1.987 0 30.933 30.933 0 0 1-9.792 9.792 1.173 1.173 0 0 0 0 1.987 30.933 30.933 0 0 1 9.792 9.792 1.173 1.173 0 0 0 1.987 0 30.933 30.933 0 0 1 9.792-9.792 1.173 1.173 0 0 0 0-1.987z" opacity="1" data-original="#fff68e"></path><path fill="#FF50B5" d="M89.45 242.329a30.933 30.933 0 0 0-9.792 9.792 1.173 1.173 0 0 1-1.987 0 30.933 30.933 0 0 0-9.792-9.792 1.173 1.173 0 0 1 0-1.987 30.933 30.933 0 0 0 9.792-9.792 1.173 1.173 0 0 1 1.987 0 30.933 30.933 0 0 0 9.792 9.792c.733.46.733 1.528 0 1.987zm230 215.342a30.933 30.933 0 0 1-9.792-9.792 1.173 1.173 0 0 0-1.987 0 30.933 30.933 0 0 1-9.792 9.792 1.173 1.173 0 0 0 0 1.987 30.933 30.933 0 0 1 9.792 9.792 1.173 1.173 0 0 0 1.987 0 30.933 30.933 0 0 1 9.792-9.792 1.173 1.173 0 0 0 0-1.987z" opacity="1" data-original="#ff50b5"></path></g></svg>