<svg width="92" height="87" viewBox="0 0 92 87" fill="none" xmlns="http://www.w3.org/2000/svg">
<path d="M20.1426 18.1793C19.8725 18.1069 19.6853 17.9713 19.5807 17.7722C19.4852 17.5888 19.4637 17.3989 19.5163 17.2025C19.5624 17.0307 19.6788 16.8908 19.8655 16.783C20.0678 16.6662 20.3204 16.5826 20.6233 16.5322C21.1834 16.406 21.7127 16.2716 22.2113 16.129C22.7222 15.9896 23.1522 15.8088 23.5011 15.5866C23.85 15.3644 24.0689 15.0876 24.1577 14.7562C24.2334 14.4739 24.1989 14.2345 24.0542 14.0379C23.9129 13.829 23.6826 13.6818 23.3635 13.5963C23.1794 13.5469 22.9118 13.5147 22.5607 13.4995C22.2129 13.4721 21.8311 13.4487 21.4153 13.4294C21.0151 13.4011 20.621 13.3745 20.233 13.3494C19.8484 13.3121 19.5272 13.259 19.2695 13.1899C18.8031 13.0649 18.4829 12.8607 18.3089 12.5773C18.1381 12.2816 18.1054 11.9374 18.2106 11.5447C18.2633 11.3483 18.4588 11.085 18.7972 10.7547C19.1357 10.4244 19.5593 10.0709 20.068 9.69422C20.5923 9.30851 21.1534 8.93267 21.7514 8.5667C22.3493 8.20073 22.9435 7.87322 23.534 7.58418C24.1368 7.29842 24.6813 7.08258 25.1677 6.93665C25.6663 6.79401 26.0568 6.76051 26.3391 6.83615C26.6214 6.91179 26.8115 7.0614 26.9095 7.28496C27.0074 7.50853 27.0186 7.76146 26.9429 8.04375C26.8837 8.26468 26.7959 8.44505 26.6795 8.58488C26.5664 8.71243 26.3818 8.78792 26.1255 8.81135C25.8816 8.83807 25.5248 8.79508 25.0551 8.68238C24.4745 8.9346 23.8484 9.23383 23.1768 9.58008C22.5208 9.91733 21.9028 10.2845 21.3228 10.6816C20.7584 11.0697 20.3155 11.4707 19.9942 11.8844C20.4354 11.858 20.9576 11.8729 21.5607 11.9293C22.1794 11.9767 22.7895 12.081 23.3909 12.2421C24.336 12.4953 24.978 12.8976 25.317 13.4488C25.6716 13.9911 25.7568 14.6059 25.5727 15.2932C25.4543 15.7351 25.1898 16.1575 24.7793 16.5605C24.3843 16.9546 23.9116 17.2949 23.3612 17.5816C22.8108 17.8682 22.2511 18.0668 21.6822 18.1775C21.1099 18.3004 20.5967 18.301 20.1426 18.1793ZM28.4389 20.2444C27.8375 20.0833 27.3521 19.8085 26.9826 19.4201C26.6286 19.0227 26.3943 18.5718 26.2795 18.0675C26.1647 17.5632 26.1697 17.0778 26.2947 16.6114C26.5578 15.6295 26.9697 14.7796 27.5304 14.0616C28.0944 13.3314 28.718 12.7223 29.4012 12.2345C30.1 11.7377 30.7848 11.3424 31.4555 11.0485C32.1384 10.7579 32.7366 10.563 33.2499 10.4638C33.7788 10.3556 34.1414 10.3278 34.3378 10.3804C34.7306 10.4856 34.8743 10.7346 34.7691 11.1274C34.7197 11.3115 34.5395 11.4934 34.2282 11.6731C33.9203 11.8405 33.5333 12.0328 33.0673 12.25C32.6013 12.4671 32.0993 12.7207 31.5612 13.0106C31.0263 13.2882 30.5013 13.6277 29.986 14.029C29.4739 14.418 29.013 14.8864 28.6031 15.4343C28.1964 15.9699 27.8961 16.5998 27.7021 17.324C27.5048 18.0604 27.7068 18.5092 28.3082 18.6703C28.8605 18.8183 29.4531 18.8653 30.0858 18.8112C30.7309 18.7604 31.3801 18.6449 32.0335 18.4648C32.7024 18.2757 33.3501 18.0678 33.9765 17.841C34.6029 17.6142 35.1753 17.3927 35.6937 17.1764C36.2154 16.9478 36.6514 16.7687 37.0019 16.639C37.3524 16.5092 37.589 16.4608 37.7117 16.4937C37.9572 16.5595 38.0437 16.7274 37.9714 16.9974C37.9155 17.2061 37.7003 17.4444 37.326 17.7124C36.9516 17.9804 36.4708 18.2528 35.8836 18.5296C35.2964 18.8064 34.6523 19.0745 33.9514 19.3339C33.2537 19.5811 32.5582 19.7959 31.8647 19.9784C31.1745 20.1487 30.5253 20.2641 29.917 20.3248C29.3244 20.3765 28.8317 20.3497 28.4389 20.2444ZM35.0298 22.1091C34.8334 22.0565 34.6891 21.9323 34.5968 21.7366C34.5046 21.5409 34.4962 21.3018 34.5719 21.0196C34.6278 20.8109 34.7628 20.4788 34.977 20.0231C35.2067 19.5585 35.464 19.0157 35.7488 18.3948C36.0458 17.7772 36.331 17.1301 36.6044 16.4535C36.881 15.7647 37.1065 15.095 37.2808 14.4445C37.3663 14.1254 37.5086 13.9136 37.7076 13.809C37.9222 13.6955 38.1338 13.6667 38.3425 13.7226C38.5388 13.7752 38.6532 13.9374 38.6856 14.2092C38.7181 14.481 38.6049 14.9769 38.3462 15.6969C39.2463 14.5962 40.1357 13.7559 41.0147 13.1758C41.9092 12.5867 42.7384 12.2169 43.5022 12.0664C44.2693 11.9036 44.9229 11.8946 45.463 12.0393C45.8189 12.1347 46.0569 12.2774 46.177 12.4674C46.3127 12.6485 46.3575 12.8249 46.3114 12.9967C46.2489 13.2299 46.1014 13.3877 45.8689 13.4701C45.6519 13.5435 45.2872 13.6037 44.7747 13.6505C44.1788 13.7145 43.6159 13.8267 43.0862 13.9874C42.572 14.139 42.0532 14.3815 41.5297 14.7148C41.0186 15.0514 40.4807 15.5124 39.916 16.0978C39.3547 16.6709 38.7506 17.4035 38.1037 18.2957C37.4568 19.1879 36.7312 20.2761 35.9267 21.5602C35.7807 21.8104 35.6315 21.9744 35.4792 22.0519C35.3391 22.1328 35.1893 22.1519 35.0298 22.1091ZM44.2542 24.4032C43.53 24.2092 43.0333 23.7801 42.764 23.116C42.4947 22.4518 42.4784 21.6779 42.7152 20.7942C42.8007 20.4751 42.9341 20.1491 43.1154 19.8162C43.3123 19.4743 43.5238 19.1758 43.75 18.9207C43.6871 18.8117 43.6508 18.6771 43.6412 18.5166C43.6349 18.3439 43.6629 18.141 43.7254 17.9078C43.9195 17.1836 44.2198 16.5537 44.6264 16.0181C45.033 15.4825 45.498 15.048 46.0215 14.7147C46.5482 14.3691 47.0899 14.1393 47.6466 14.0254C48.2156 13.9148 48.7578 13.9285 49.2733 14.0666C50.1202 14.2935 50.7253 14.7846 51.0886 15.5396C51.4552 16.2825 51.4725 17.2737 51.1403 18.5133C50.966 19.1638 50.6902 19.8003 50.313 20.4227C49.948 21.0484 49.516 21.6299 49.0168 22.167C48.53 22.7075 48.006 23.1656 47.4449 23.5415C46.8961 23.9206 46.3428 24.1933 45.7852 24.3596C45.2432 24.5169 44.7328 24.5315 44.2542 24.4032ZM45.1328 18.6203C45.1801 18.7382 45.1824 18.877 45.1397 19.0365C45.0903 19.2206 45.0042 19.3949 44.8812 19.5592C44.7705 19.7269 44.6356 19.9604 44.4764 20.2598C44.3173 20.5592 44.1588 21.0034 44.0009 21.5926C43.8431 22.1817 43.9974 22.5388 44.4637 22.6637C44.9792 22.8019 45.5122 22.7276 46.0625 22.441C46.6162 22.1421 47.152 21.7134 47.67 21.155C48.1879 20.5966 48.6376 19.9738 49.0191 19.2867C49.4161 18.5907 49.7033 17.9112 49.8809 17.2485C49.996 16.8189 49.9968 16.4968 49.8833 16.2822C49.7731 16.0554 49.5093 15.886 49.092 15.7742C48.6624 15.6591 48.175 15.6864 47.6297 15.8559C47.0999 16.0166 46.6158 16.3012 46.1774 16.71C45.7391 17.1187 45.4377 17.6299 45.2732 18.2436C45.237 18.3786 45.1902 18.5042 45.1328 18.6203ZM53.5793 27.4938C52.6343 27.2406 51.9739 26.7348 51.5983 25.9764C51.2383 25.209 51.2079 24.2669 51.5072 23.15C51.6913 22.4627 51.9988 21.6834 52.4296 20.8123C52.8759 19.9321 53.3844 19.016 53.9553 18.0639C54.5416 17.1029 55.1493 16.1607 55.7782 15.2374C56.4071 14.314 57.004 13.461 57.5688 12.6784C58.1493 11.8868 58.6473 11.231 59.0629 10.7109C59.299 10.419 59.552 10.3092 59.8221 10.3815C60.1903 10.4802 60.3135 10.7566 60.1918 11.2107C60.1524 11.358 60.0043 11.6406 59.7476 12.0586C59.4909 12.4765 59.1617 12.9934 58.7599 13.6092C58.3614 14.2128 57.9247 14.8851 57.4499 15.6261C56.9751 16.3671 56.4876 17.131 55.9874 17.9178C55.5027 18.6956 55.0381 19.4722 54.5935 20.2476C54.1523 21.0108 53.7671 21.7363 53.4381 22.4243C53.109 23.1122 52.8754 23.714 52.7373 24.2295C52.6485 24.5608 52.6637 24.8477 52.7829 25.0902C52.9177 25.3236 53.1385 25.4814 53.4454 25.5636C54.0099 25.7149 54.6041 25.7557 55.2279 25.6861C55.8672 25.6075 56.4952 25.4732 57.1118 25.2832C57.7316 25.0809 58.3007 24.8717 58.8191 24.6554C59.353 24.4301 59.803 24.2481 60.169 24.1094C60.5384 23.9585 60.7844 23.8994 60.9071 23.9323C61.1771 24.0046 61.2727 24.1881 61.1938 24.4827C61.1675 24.5809 61.0199 24.7387 60.7512 24.9561C60.4858 25.1612 60.1397 25.3973 59.7129 25.6645C59.2861 25.9316 58.8009 26.1962 58.2571 26.4583C57.7288 26.7114 57.181 26.9395 56.6135 27.1426C56.0616 27.3368 55.52 27.4679 54.9887 27.536C54.4664 27.6197 53.9966 27.6056 53.5793 27.4938ZM60.9967 29.4813C60.0516 29.2281 59.3913 28.7223 59.0157 27.9639C58.6557 27.1965 58.6253 26.2544 58.9245 25.1375C59.1087 24.4502 59.4162 23.6709 59.8469 22.7997C60.2932 21.9196 60.8018 21.0034 61.3726 20.0514C61.959 19.0904 62.5666 18.1482 63.1955 17.2248C63.8244 16.3015 64.4213 15.4485 64.9862 14.6659C65.5666 13.8743 66.0647 13.2184 66.4803 12.6984C66.7164 12.4064 66.9694 12.2967 67.2394 12.369C67.6076 12.4677 67.7309 12.7441 67.6092 13.1982C67.5697 13.3455 67.4217 13.6281 67.165 14.046C66.9083 14.464 66.579 14.9809 66.1772 15.5967C65.7787 16.2003 65.3421 16.8726 64.8673 17.6136C64.3925 18.3546 63.905 19.1185 63.4047 19.9053C62.9201 20.6831 62.4555 21.4597 62.0109 22.2351C61.5696 22.9982 61.1845 23.7238 60.8554 24.4117C60.5264 25.0997 60.2928 25.7014 60.1547 26.2169C60.0659 26.5483 60.0811 26.8352 60.2003 27.0776C60.3351 27.3111 60.5559 27.4689 60.8627 27.5511C61.4273 27.7024 62.0215 27.7432 62.6453 27.6736C63.2846 27.5949 63.9126 27.4606 64.5291 27.2707C65.149 27.0684 65.7181 26.8592 66.2365 26.6429C66.7704 26.4176 67.2204 26.2356 67.5864 26.0969C67.9557 25.9459 68.2018 25.8869 68.3245 25.9198C68.5945 25.9921 68.6901 26.1756 68.6111 26.4701C68.5848 26.5683 68.4373 26.7261 68.1686 26.9435C67.9031 27.1487 67.557 27.3848 67.1303 27.6519C66.7035 27.9191 66.2182 28.1837 65.6744 28.4458C65.1462 28.6989 64.5984 28.927 64.0309 29.1301C63.479 29.3243 62.9374 29.4554 62.4061 29.5235C61.8838 29.6072 61.414 29.5931 60.9967 29.4813ZM42.0661 32.3293C42.6113 31.6203 43.1446 30.8818 43.6661 30.1139C44.1998 29.3492 44.7078 28.5579 45.1901 27.74C45.3295 27.5143 45.4926 27.3475 45.6793 27.2397C45.8816 27.1229 46.0871 27.0924 46.2958 27.1483C46.4431 27.1878 46.551 27.2759 46.6196 27.4127C46.7005 27.5527 46.7162 27.7148 46.6669 27.8989C46.6044 28.1321 46.4038 28.5125 46.0652 29.04C45.7388 29.5708 45.3222 30.2419 44.8153 31.0532C44.3208 31.8679 43.784 32.8159 43.2048 33.8972C42.6412 34.9696 42.0816 36.1746 41.5258 37.5122C40.9824 38.8531 40.5002 40.309 40.0792 41.88C39.9871 42.2237 39.8379 42.4863 39.6314 42.6677C39.4216 42.8614 39.2124 42.9304 39.0038 42.8745C38.881 42.8416 38.7726 42.7796 38.6786 42.6887C38.5846 42.5977 38.5259 42.4241 38.5025 42.1679C38.488 41.9272 38.5204 41.561 38.5995 41.0692C38.682 40.5651 38.835 39.8957 39.0587 39.0611C39.2297 38.4229 39.4523 37.7393 39.7266 37.0103C38.889 37.8778 38.0369 38.6032 37.1702 39.1865C36.3191 39.7609 35.5325 40.1684 34.8103 40.409C34.1003 40.6529 33.5306 40.7173 33.101 40.6022C32.5732 40.4608 32.1913 40.1677 31.9553 39.723C31.7283 39.2938 31.7069 38.7356 31.891 38.0482C32.0522 37.4468 32.3594 36.8648 32.8127 36.3023C33.266 35.7397 33.8081 35.214 34.4389 34.7253C35.073 34.2243 35.7464 33.7733 36.4589 33.3723C37.1715 32.9713 37.866 32.6377 38.5424 32.3717C39.2344 32.0967 39.8571 31.9084 40.4105 31.8067C40.9672 31.6928 41.399 31.6769 41.7058 31.7592C41.8286 31.7921 41.9275 31.8646 42.0027 31.9768C42.0779 32.0891 42.099 32.2065 42.0661 32.3293ZM41.6739 32.8359C41.5649 32.8988 41.4376 32.9567 41.2918 33.0097C41.1461 33.0628 40.9864 33.1187 40.8128 33.1774C40.1708 33.4132 39.4571 33.6955 38.6718 34.0244C37.902 34.3444 37.1436 34.72 36.3967 35.1512C35.6652 35.5735 35.0299 36.0544 34.4907 36.594C33.9515 37.1336 33.5914 37.7409 33.4105 38.4159C33.3316 38.7105 33.4394 38.8972 33.734 38.9762C34.139 39.0847 34.6319 39.0129 35.2125 38.7606C35.8087 38.4994 36.4566 38.0942 37.1562 37.545C37.8592 36.9836 38.5934 36.3055 39.3588 35.5108C40.1275 34.7039 40.8992 33.8122 41.6739 32.8359ZM45.3997 43.3451C44.6756 43.1511 44.1789 42.722 43.9096 42.0579C43.6403 41.3938 43.624 40.6198 43.8608 39.7361C43.9463 39.417 44.0797 39.091 44.261 38.7581C44.4578 38.4162 44.6693 38.1177 44.8956 37.8626C44.8327 37.7537 44.7964 37.619 44.7868 37.4585C44.7804 37.2858 44.8085 37.0829 44.871 36.8497C45.065 36.1255 45.3653 35.4957 45.772 34.96C46.1786 34.4244 46.6436 33.9899 47.167 33.6566C47.6937 33.311 48.2354 33.0812 48.7922 32.9673C49.3612 32.8567 49.9034 32.8704 50.4189 33.0085C51.2658 33.2355 51.8709 33.7265 52.2342 34.4816C52.6008 35.2244 52.618 36.2156 52.2859 37.4552C52.1116 38.1057 51.8358 38.7422 51.4585 39.3646C51.0936 39.9904 50.6615 40.5718 50.1624 41.1089C49.6756 41.6494 49.1516 42.1075 48.5905 42.4834C48.0416 42.8625 47.4884 43.1352 46.9308 43.3015C46.3888 43.4588 45.8784 43.4734 45.3997 43.3451ZM46.2784 37.5622C46.3257 37.6802 46.328 37.8189 46.2852 37.9785C46.2359 38.1626 46.1498 38.3368 46.0268 38.5012C45.9161 38.6688 45.7812 38.9023 45.622 39.2017C45.4629 39.5011 45.3044 39.9454 45.1465 40.5345C44.9886 41.1236 45.1429 41.4807 45.6093 41.6056C46.1248 41.7438 46.6577 41.6695 47.2081 41.3829C47.7618 41.084 48.2976 40.6553 48.8155 40.0969C49.3335 39.5385 49.7832 38.9157 50.1646 38.2286C50.5616 37.5326 50.8489 36.8532 51.0265 36.1904C51.1416 35.7608 51.1424 35.4387 51.0289 35.2241C50.9187 34.9973 50.6549 34.8279 50.2376 34.7161C49.808 34.601 49.3206 34.6283 48.7752 34.7979C48.2455 34.9585 47.7614 35.2431 47.323 35.6519C46.8846 36.0606 46.5832 36.5718 46.4188 37.1855C46.3826 37.3205 46.3358 37.4461 46.2784 37.5622ZM53.4699 45.8824C53.0403 45.7673 52.7353 45.4817 52.555 45.0256C52.3902 44.5605 52.441 43.8308 52.7074 42.8367C52.9869 41.7934 53.2767 40.7858 53.5766 39.8138C53.8798 38.8295 54.1857 37.9577 54.4944 37.1985C54.8153 36.4426 55.1303 35.8561 55.4394 35.4391C55.7485 35.022 56.0503 34.8529 56.3449 34.9319C56.5535 34.9878 56.7064 35.1537 56.8034 35.4296C56.9038 35.6933 56.9046 36.0093 56.806 36.3775C56.704 36.7579 56.5307 37.2574 56.2861 37.8759C56.0414 38.4944 55.7652 39.1571 55.4574 39.8639C55.1652 40.5617 54.8902 41.2444 54.6324 41.912C54.3779 42.5673 54.1881 43.1282 54.0631 43.5946C54.0105 43.791 53.9739 43.9522 53.9533 44.0782C53.9482 44.1952 53.9703 44.2603 54.0194 44.2735C54.2035 44.3228 54.4426 44.2159 54.7368 43.9527C55.0465 43.6805 55.3948 43.3134 55.7817 42.8514C56.1718 42.3771 56.5874 41.8571 57.0285 41.2912C57.4728 40.713 57.9216 40.1427 58.3749 39.5801C58.8282 39.0175 59.2728 38.5118 59.7088 38.063C60.1481 37.6019 60.5578 37.2512 60.9378 37.011C61.3212 36.7586 61.654 36.6702 61.9363 36.7458C62.2677 36.8346 62.5318 37.0764 62.7286 37.4711C62.9409 37.8569 62.9698 38.3382 62.8152 38.9151C62.7692 39.0869 62.6641 39.381 62.4999 39.7974C62.339 40.2016 62.1494 40.6638 61.931 41.1841C61.7127 41.7044 61.4943 42.2247 61.276 42.745C61.0609 43.2531 60.8729 43.7091 60.712 44.1133C60.5544 44.5052 60.4526 44.787 60.4065 44.9589C60.2355 45.5971 60.2114 45.9326 60.3341 45.9655C60.6778 46.0576 61.0974 45.9398 61.593 45.6122C62.1041 45.2756 62.6482 44.8162 63.2251 44.2342C63.8176 43.6431 64.4187 42.9952 65.0285 42.2903C65.6539 41.5765 66.251 40.8946 66.8198 40.2446C67.0969 39.8979 67.3087 39.6718 67.4554 39.5664C67.6176 39.452 67.76 39.4113 67.8828 39.4441C68.0546 39.4902 68.1895 39.625 68.2874 39.8486C68.3977 40.0754 68.41 40.3484 68.3245 40.6675C68.2949 40.778 68.2592 40.8868 68.2173 40.994C68.1787 41.0889 68.1185 41.1911 68.0365 41.3007C67.3232 42.2935 66.6006 43.1983 65.8687 44.0151C65.1401 44.8196 64.4305 45.5043 63.7398 46.069C63.0647 46.6248 62.4352 47.035 61.8513 47.2994C61.2706 47.5517 60.7778 47.6235 60.3728 47.515C59.6732 47.3275 59.1796 46.9848 58.8921 46.4868C58.6202 45.9798 58.5746 45.3888 58.7555 44.7138C58.8311 44.4315 58.9482 44.0682 59.1067 43.624C59.2775 43.183 59.4643 42.7068 59.6671 42.1955C59.8821 41.6875 60.0922 41.1979 60.2974 40.7267C60.5026 40.2554 60.6791 39.8423 60.8268 39.4873C60.9869 39.1355 61.0911 38.8938 61.1396 38.762C61.1979 38.5935 61.2025 38.5026 61.1534 38.4895C61.1043 38.4763 60.9633 38.6096 60.7306 38.8892C60.5133 39.1599 60.2424 39.5083 59.9178 39.9343C59.6087 40.3514 59.2824 40.7836 58.9389 41.2309C58.5577 41.7207 58.1249 42.2559 57.6405 42.8364C57.1716 43.408 56.6864 43.9423 56.1849 44.4394C55.6957 44.9397 55.216 45.3308 54.7458 45.6126C54.2757 45.8944 53.8503 45.9844 53.4699 45.8824ZM68.1237 48.7828C67.7678 48.6875 67.5029 48.3994 67.3292 47.9188C67.1554 47.4381 67.154 46.8786 67.325 46.2404C67.5125 45.5408 67.8052 44.8168 68.203 44.0684C68.6132 43.3232 69.0696 42.5773 69.5722 41.8306C70.0781 41.0716 70.5697 40.3417 71.0469 39.6408C71.151 39.4977 71.2682 39.4041 71.3984 39.3601C71.5441 39.307 71.7397 39.3134 71.9852 39.3792C72.427 39.4976 72.5904 39.7716 72.4753 40.2011C72.449 40.2993 72.3407 40.5071 72.1504 40.8244C71.9602 41.1418 71.7178 41.5307 71.4234 41.9912C71.1413 42.4549 70.8416 42.96 70.5241 43.5064C70.21 44.0405 69.9127 44.5856 69.6321 45.1419C69.3515 45.6981 69.1192 46.2213 68.9353 46.7114C69.1876 46.5553 69.494 46.2954 69.8546 45.9316C70.2274 45.5711 70.6335 45.1603 71.0728 44.6992C71.5153 44.2258 71.9701 43.7557 72.4372 43.2889C72.9076 42.8098 73.3649 42.3798 73.809 41.9989C74.2686 41.6091 74.6897 41.3141 75.0721 41.114C75.4702 40.9049 75.8042 40.8366 76.0742 40.9089C76.467 41.0142 76.7655 41.2257 76.9697 41.5435C77.1895 41.8524 77.2925 42.3272 77.2787 42.9681C77.2804 43.6 77.1365 44.456 76.8471 45.536C76.6925 46.1129 76.6031 46.6677 76.5787 47.2006C76.5666 47.7367 76.6483 48.1927 76.8238 48.5686C77.0149 48.9355 77.3191 49.1748 77.7364 49.2867C78.3624 49.4544 78.9504 49.4936 79.5005 49.4042C80.054 49.3025 80.5465 49.1582 80.9781 48.9713C81.4252 48.7754 81.8011 48.5999 82.1058 48.4447C82.4137 48.2773 82.6352 48.2117 82.7702 48.2479C83.0525 48.3235 83.1542 48.5086 83.0753 48.8032C83.0424 48.9259 82.8977 49.0976 82.6412 49.3183C82.4003 49.53 82.0759 49.7588 81.668 50.0047C81.2757 50.2416 80.8359 50.4592 80.3487 50.6575C79.877 50.8468 79.3878 50.9788 78.881 51.0535C78.3865 51.1315 77.9123 51.1097 77.4581 50.988C76.6113 50.7611 75.9622 50.4096 75.5109 49.9335C75.072 49.4607 74.8256 48.8093 74.7717 47.9792C74.7302 47.1525 74.8804 46.1009 75.2224 44.8245C75.4099 44.1249 75.5034 43.604 75.503 43.2619C75.5181 42.9107 75.4362 42.652 75.2571 42.4856C75.0408 42.7039 74.7519 43.0211 74.3904 43.4373C74.0323 43.8412 73.6225 44.2905 73.1611 44.7852C72.7119 45.2831 72.2427 45.7822 71.7535 46.2826C71.2798 46.7739 70.8115 47.2207 70.3486 47.6228C69.8856 48.025 69.4596 48.3383 69.0706 48.563C68.6848 48.7753 68.3692 48.8486 68.1237 48.7828Z" fill="#1A1A1A"/>
<g clip-path="url(#clip0_2016_619)">
<path d="M77.3416 67.7975C77.7075 67.1785 78.4245 65.6439 78.6934 65.4306C78.9184 65.2495 79.1617 65.0659 79.4892 65.2268C79.7489 65.355 79.7087 65.8124 79.6282 66.0689C79.4435 66.6486 79.1746 67.2131 78.8801 67.7415C77.9197 69.4816 76.9429 71.2173 75.957 72.9432C75.6807 73.4252 75.3954 73.9194 74.8265 73.8036C74.2301 73.6804 74.1514 73.1179 74.1532 72.5184C74.1568 70.2 74.1787 67.8792 74.2116 65.5613C74.2207 64.8248 74.528 64.4901 74.7677 64.4519C75.2451 64.3823 75.397 64.7815 75.4701 65.2547C75.5799 65.9646 75.6678 66.6905 75.8288 67.4068C76.3793 65.5715 77.0049 63.7417 76.9225 61.81C76.8219 59.6173 75.3803 58.6531 73.6516 59.5946C72.5906 60.1737 71.7565 61.1135 71.1071 62.2638C70.3169 63.6544 69.6382 65.1334 68.8279 66.5113C68.2462 67.4968 67.6261 68.516 66.8614 69.2842C65.2535 70.8946 63.5559 70.3593 62.9412 68.1752C62.5039 66.624 62.6685 64.9999 62.9282 63.3501C63.1203 62.1065 63.2922 60.8503 63.3653 59.6114C63.433 58.415 63.325 57.1276 62.2494 56.8174C61.2469 56.5196 60.4786 57.5209 59.9225 58.4767C59.167 59.7815 58.5561 61.2055 57.8427 62.5508C57.2482 63.6719 56.6848 64.8526 55.9457 65.8325C54.3781 67.9074 52.3841 67.7536 51.2828 65.5855C50.4358 63.9171 50.679 61.5605 50.9369 59.9176C51.2021 58.2253 51.3045 57.7333 51.8715 55.3976C52.0234 54.7652 52.2374 53.8128 52.9965 54.0089C53.7612 54.2065 53.4411 55.1377 53.3021 55.7663C52.7515 58.3039 52.6144 59.0574 52.351 60.9184C52.1882 62.0747 52.1132 63.6496 52.5797 64.6306C53.0426 65.6034 54.3469 65.9163 55.1152 64.7174C56.0536 63.2567 56.7725 61.6056 57.6176 60.0541C58.2889 58.8219 58.8889 57.4828 59.7377 56.4444C61.8102 53.9122 64.3585 54.6755 64.9385 57.8892C65.0135 58.3117 65.083 58.7547 65.0428 59.1902C64.9239 60.5997 64.7319 62.0189 64.6185 63.4299C64.5198 64.6985 64.368 65.9894 64.4558 67.2202C64.5546 68.5856 65.3504 68.8208 66.1626 67.7214C66.9912 66.6045 67.6242 65.2742 68.3467 64.0484C69.168 62.6515 69.9199 61.1848 70.8363 59.8719C71.793 58.4967 73.0625 57.6223 74.5059 57.3286C76.1175 56.9995 77.5499 57.9101 78.1683 59.6196C78.6659 60.9894 78.6659 62.4601 78.3861 63.9874C78.2452 64.7545 77.7221 66.641 77.3416 67.7975Z" fill="#1A1A1A"/>
</g>
<defs>
<clipPath id="clip0_2016_619">
<rect width="32.7261" height="40.7074" fill="white" transform="translate(54.6406 38.9604) rotate(15)"/>
</clipPath>
</defs>
</svg>
