<svg xmlns="http://www.w3.org/2000/svg" version="1.1" xmlns:xlink="http://www.w3.org/1999/xlink" width="512" height="512" x="0" y="0" viewBox="0 0 24 24" style="enable-background:new 0 0 512 512" xml:space="preserve" class=""><g><path d="M12.75 7v3a.75.75 0 0 1-1.5 0V7a.75.75 0 0 1 1.5 0zm6 2v6c0 3.722-3.028 6.75-6.75 6.75S5.25 18.722 5.25 15V9c0-3.722 3.028-6.75 6.75-6.75S18.75 5.278 18.75 9zm-1.5 0c0-2.895-2.355-5.25-5.25-5.25S6.75 6.105 6.75 9v6c0 2.895 2.355 5.25 5.25 5.25s5.25-2.355 5.25-5.25z" fill="#000000" opacity="1" data-original="#000000" class=""></path></g></svg>