<svg xmlns="http://www.w3.org/2000/svg" version="1.1" xmlns:xlink="http://www.w3.org/1999/xlink" width="512" height="512" x="0" y="0" viewBox="0 0 64 64" style="enable-background:new 0 0 512 512" xml:space="preserve" class=""><g><path fill="#470082" d="M49 3H15a4 4 0 0 0-4 4v50a4 4 0 0 1 4-4h34a4 4 0 0 0 4-4V7a4 4 0 0 0-4-4z" opacity="1" data-original="#470082" class=""></path><path fill="#350062" d="M15 3v50a4 4 0 0 0-4 4V7a4 4 0 0 1 4-4z" opacity="1" data-original="#350062"></path><circle cx="34" cy="27.507" r="12.709" fill="#E0B152" opacity="1" data-original="#ffc02a" class=""></circle><circle cx="30" cy="46" r="2" fill="#FFFFFF" opacity="1" data-original="#ffffff"></circle><path fill="#C9DFEB" d="M49 53H15a4 4 0 0 0 0 8h36a2 2 0 0 0 2-2V49a4 4 0 0 1-4 4z" opacity="1" data-original="#c9dfeb"></path><path fill="#FFFFFF" d="M25.355 23.091a9.716 9.716 0 0 0-1.064 4.417 1 1 0 0 0 2 0 7.591 7.591 0 0 1 .844-3.5 1 1 0 0 0-1.78-.914z" opacity="1" data-original="#ffffff"></path><path fill="#FFAA00" d="M47.84 13.99c-1.838-2.213-6.907-1.4-11.25 1.08a12.039 12.039 0 0 1 2.72.89c3.22-1.43 6.152-1.8 7.12-.55 3.416 4.426-3.761 12.881-7.84 17.02-3.923 3.981-12.784 11.206-17.02 7.83-1.283-1.023-.82-4.21.79-7.65a11.531 11.531 0 0 1-.84-2.73c-2.7 4.585-3.7 10-1.36 11.79 6.193 4.759 14.878-3.07 19.85-7.83 4.764-4.561 12.332-14.43 7.83-19.85z" opacity="1" data-original="#ffaa00" class=""></path><path fill="#FFFFFF" d="M37 13a1 1 0 0 0 1-1v-1h1a1 1 0 0 0 0-2h-1V8a1 1 0 0 0-2 0v1h-1a1 1 0 0 0 0 2h1v1a1 1 0 0 0 1 1z" opacity="1" data-original="#ffffff"></path><path fill="#A2BBCB" d="M53 56H18a1 1 0 0 0 0 2h35z" opacity="1" data-original="#a2bbcb"></path><g fill="#FFC02A"><path d="M48.416 44.109c-1.775-.49-2.035-.75-2.525-2.525a.794.794 0 0 0-1.532 0c-.49 1.775-.75 2.035-2.525 2.525a.794.794 0 0 0 0 1.532c1.775.49 2.035.75 2.525 2.525a.794.794 0 0 0 1.532 0c.49-1.775.75-2.035 2.525-2.525a.794.794 0 0 0 0-1.532zM26.416 10.109c-1.775-.49-2.035-.75-2.525-2.525a.794.794 0 0 0-1.532 0c-.49 1.775-.75 2.035-2.525 2.525a.794.794 0 0 0 0 1.532c1.775.49 2.035.75 2.525 2.525a.794.794 0 0 0 1.532 0c.49-1.775.75-2.035 2.525-2.525a.794.794 0 0 0 0-1.532z" fill="#E0B152" opacity="1" data-original="#ffc02a" class=""></path></g></g></svg>