<svg xmlns="http://www.w3.org/2000/svg" version="1.1" xmlns:xlink="http://www.w3.org/1999/xlink" width="512" height="512" x="0" y="0" viewBox="0 0 512 512" style="enable-background:new 0 0 512 512" xml:space="preserve" class=""><g><path d="M231.942 472.554H31.558c-13.287 0-24.058-10.771-24.058-24.058V176.704c0-13.287 10.771-24.058 24.058-24.058h149.204c41.553 0 75.238 33.685 75.238 75.238v220.612c0 13.287-10.771 24.058-24.058 24.058z" style="" fill="#FFF9E2" data-original="#fff9e2" class=""></path><path d="M180.762 152.646H150.68c41.553 0 75.238 33.685 75.238 75.238v220.612c0 13.287-10.771 24.058-24.058 24.058h30.082c13.287 0 24.058-10.771 24.058-24.058V227.884c0-41.553-33.685-75.238-75.238-75.238z" style="" fill="#FFF5C6" data-original="#fff5c6"></path><path d="M480.442 472.554H280.058c-13.287 0-24.058-10.771-24.058-24.058V227.884c0-41.553 33.685-75.238 75.238-75.238h149.204c13.287 0 24.058 10.771 24.058 24.058v271.791c0 13.288-10.771 24.059-24.058 24.059z" style="" fill="#FFF9E2" data-original="#fff9e2" class=""></path><path d="M480.442 152.646H450.36c13.287 0 24.058 10.771 24.058 24.058v271.791c0 13.287-10.771 24.058-24.058 24.058h30.082c13.287 0 24.058-10.771 24.058-24.058V176.704c0-13.287-10.771-24.058-24.058-24.058z" style="" fill="#FFF5C6" data-original="#fff5c6"></path><path d="M421.042 166.889h-60.137c-11.1 43.73-11.1 87.46 0 131.18h60.137c11.1-43.72 11.1-87.45 0-131.18z" style="" fill="#D2CFE9" data-original="#d2cfe9"></path><path d="M421.04 298.071h-29.08c11.1-43.72 11.1-87.45 0-131.18h29.08c11.1 43.73 11.1 87.46 0 131.18z" style="" fill="#C2BCE0" data-original="#c2bce0" class=""></path><path d="m372.09 126.231-11.188 40.662h60.142l-11.188-40.662c-5.277-19.186-32.487-19.186-37.766 0z" style="" fill="#FE76A8" data-original="#fe76a8" class=""></path><path d="M421.04 166.891h-29.08l-11.18-40.66c-.89-3.24-2.41-5.94-4.34-8.08 9.5-10.56 29.03-7.87 33.42 8.08l11.18 40.66z" style="" fill="#FE5694" data-original="#fe5694"></path><path d="M360.903 298.071h60.142l4.231 24.186c1.032 5.9-3.508 11.303-9.498 11.303h-49.609c-5.99 0-10.53-5.403-9.498-11.303l4.232-24.186z" style="" fill="#FE76A8" data-original="#fe76a8" class=""></path><path d="M415.78 333.561H386.7c5.99 0 10.53-5.4 9.49-11.3l-4.23-24.19h29.08l4.24 24.19c1.03 5.9-3.51 11.3-9.5 11.3z" style="" fill="#FE5694" data-original="#fe5694"></path><circle cx="164.97" cy="141.962" r="88.942" style="" fill="#978ECB" data-original="#978ecb" class=""></circle><path d="M247.221 108.12c-17.889-43.478-66.27-65.191-110.215-50.587 23.733 7.873 44.026 25.649 54.287 50.587 18.691 45.426-2.983 97.403-48.409 116.094a89.719 89.719 0 0 1-5.879 2.178c19.499 6.468 41.319 6.252 61.807-2.178 45.426-18.691 67.1-70.668 48.409-116.094z" style="" fill="#8379C1" data-original="#8379c1" class=""></path><path d="m460.448 42.038 7.018 14.221 15.694 2.28c3.81.554 5.332 5.236 2.574 7.923l-11.356 11.069 2.681 15.63c.651 3.795-3.332 6.689-6.74 4.897l-14.037-7.38-14.037 7.38c-3.408 1.792-7.391-1.102-6.74-4.897l2.681-15.63-11.356-11.069c-2.757-2.687-1.236-7.37 2.574-7.923l15.694-2.28 7.018-14.221c1.705-3.452 6.629-3.452 8.332 0z" style="" fill="#E0B152" data-original="#fee97d" class="" opacity="1"></path><path d="m195.349 273.717 1.285 26.09M209.037 286.12l-26.091 1.285M160.75 331.318h0M242.7 185.181c8.39 12.13 13.3 26.84 13.3 42.7v220.61c0 13.29-10.77 24.06-24.06 24.06H31.56c-13.29 0-24.06-10.77-24.06-24.06v-271.79c0-13.28 10.77-24.06 24.06-24.06h45.1M35.5 415.231H228M35.5 387.816h61.491M35.5 444.554H228M389.824 472.551H280.06c-13.29 0-24.06-10.77-24.06-24.06v-220.61c0-41.55 33.69-75.24 75.24-75.24h33.58M417.12 152.641h63.32c13.29 0 24.06 10.78 24.06 24.06v271.79c0 13.29-10.77 24.06-24.06 24.06h-55.343" style="stroke-linecap: round; stroke-linejoin: round; stroke-miterlimit: 10;" fill="none" stroke="#000000" stroke-width="15px" stroke-linecap="round" stroke-linejoin="round" stroke-miterlimit="10" data-original="#000000" class=""></path><path d="M421.042 166.889h-60.137c-11.1 43.73-11.1 87.46 0 131.18h60.137c11.1-43.72 11.1-87.45 0-131.18z" style="stroke-linecap: round; stroke-linejoin: round; stroke-miterlimit: 10;" fill="none" stroke="#000000" stroke-width="15px" stroke-linecap="round" stroke-linejoin="round" stroke-miterlimit="10" data-original="#000000" class=""></path><path d="m372.09 126.231-11.188 40.662h60.142l-11.188-40.662c-5.277-19.186-32.487-19.186-37.766 0zM360.903 298.071h60.142l4.231 24.186c1.032 5.9-3.508 11.303-9.498 11.303h-49.609c-5.99 0-10.53-5.403-9.498-11.303l4.232-24.186zM390.974 203.775h0M390.974 229.874h0M390.974 255.974h0M79.402 117.683c7.199-25.307 25.505-47.184 51.725-57.972 45.426-18.691 97.403 2.983 116.094 48.409s-2.983 97.403-48.409 116.094-97.403-2.983-116.094-48.409a89.005 89.005 0 0 1-6.069-23.162" style="stroke-linecap: round; stroke-linejoin: round; stroke-miterlimit: 10;" fill="none" stroke="#000000" stroke-width="15px" stroke-linecap="round" stroke-linejoin="round" stroke-miterlimit="10" data-original="#000000" class=""></path><path d="M234.31 86.221c35.62-8.53 60.85-9.01 64.78.55 3.94 9.57-14.32 26.98-45.63 45.99-20.72 12.57-47.15 25.83-76.65 37.97s-57.61 21.31-81.18 26.96c-35.62 8.54-60.84 9.01-64.78-.55-3.83-9.31 13.39-26.08 43.23-44.5M149.126 87.183l.732-.732M180.043 94.532l.732-.732M460.448 42.038l7.018 14.221 15.694 2.28c3.81.554 5.332 5.236 2.574 7.923l-11.356 11.069 2.681 15.63c.651 3.795-3.332 6.689-6.74 4.897l-14.037-7.38-14.037 7.38c-3.408 1.792-7.391-1.102-6.74-4.897l2.681-15.63-11.356-11.069c-2.757-2.687-1.236-7.37 2.574-7.923l15.694-2.28 7.018-14.221c1.705-3.452 6.629-3.452 8.332 0zM375.149 365.627l-19.711 31.914h19.711v47.013M406.799 365.627l19.711 31.914h-19.711v47.013M343.387 356.821l-22.676 20.48M438.561 356.821l22.676 20.48" style="stroke-linecap: round; stroke-linejoin: round; stroke-miterlimit: 10;" fill="none" stroke="#000000" stroke-width="15px" stroke-linecap="round" stroke-linejoin="round" stroke-miterlimit="10" data-original="#000000" class=""></path></g></svg>