<svg xmlns="http://www.w3.org/2000/svg" version="1.1" xmlns:xlink="http://www.w3.org/1999/xlink" width="512" height="512" x="0" y="0" viewBox="0 0 1707 1707" style="enable-background:new 0 0 512 512" xml:space="preserve" fill-rule="evenodd" class=""><g><path fill="#163E58" d="M1017 287c-11 0-20-9-20-20v-59c0-11 9-20 20-20s20 9 20 20v59c0 11-9 20-20 20zm-27 778c57-4 114-11 168-20-73-80-184-126-305-126-120 0-231 46-304 126 54 9 110 16 168 20l23-40h-24c-11 0-20-9-20-20s9-20 20-20h274c11 0 20 9 20 20s-9 20-20 20h-23zm213-28c66-13 128-29 184-49-37-57-103-109-189-146-50-22-106-39-165-51h-3c-57-11-116-16-177-16-60 0-120 5-176 16h-4c-59 12-114 29-165 51-85 37-151 89-188 146 55 20 117 36 183 49 80-99 210-158 350-158 141 0 271 59 350 158zm222-64c17-6 34-14 49-21 124-59 193-133 193-209 0-73-68-147-187-205l-390 225c153 38 276 113 335 210zm10-456c-50-21-105-38-165-53-1 0-2 0-3-1-119-28-253-44-394-46v318c55 1 108 6 159 15zM833 417c-140 2-274 18-393 46-1 1-2 1-4 1-59 15-114 32-164 53h-1l404 233c50-9 104-14 158-15zM226 538C107 596 40 670 40 743c0 76 68 150 192 209 16 7 32 15 49 21 59-97 182-172 336-210zm469 565c-64-5-126-13-186-24-1 0-2 0-3-1-80-15-156-35-222-61h-2c-23-9-46-19-67-29C76 922 0 835 0 743c0-101 91-194 256-263 48-19 100-37 155-51-1-10-1-21-1-32 0-212 199-386 443-386 245 0 444 174 444 386 0 11-1 22-2 32 56 14 108 32 155 51 166 69 257 162 257 263 0 92-77 179-215 245-22 10-44 20-68 29h-1c-67 26-142 46-223 61-1 1-2 1-3 1-59 11-121 19-185 24l324 562c6 10 3 22-7 28-3 1-7 2-10 2-7 0-14-3-17-10l-341-589v-1l-40-70h-47v650c0 11-9 20-20 20s-20-9-20-20v-650h-48l-381 660c-4 7-11 10-17 10-4 0-7-1-10-2-10-6-13-18-8-28zM451 420c122-28 260-43 402-43 143 0 281 15 403 43 0-8 1-15 1-23 0-190-181-346-404-346-222 0-403 156-403 346 0 8 0 15 1 23zm238-133c-11 0-20-9-20-20v-59c0-11 9-20 20-20s20 9 20 20v59c0 11-9 20-20 20zm110 0c-11 0-20-9-20-20v-59c0-11 9-20 20-20s20 9 20 20v59c0 11-9 20-20 20zm109 0c-11 0-20-9-20-20v-59c0-11 9-20 20-20s20 9 20 20v59c0 11-9 20-20 20z" opacity="1" data-original="#163e58" class=""></path><path fill="#95A4B6" d="M1267 463c-119-28-253-44-394-46v318c55 1 108 6 159 15l403-233c-50-21-105-38-165-53-1 0-2 0-3-1z" opacity="1" data-original="#95a4b6" class=""></path><path fill="#E0B152" stroke="#E0B152" stroke-width="3px" d="M853 377c143 0 281 15 403 43 0-8 1-15 1-23 0-190-181-346-404-346-222 0-403 156-403 346 0 8 0 15 1 23 122-28 260-43 402-43zm164-90c-11 0-20-9-20-20v-59c0-11 9-20 20-20s20 9 20 20v59c0 11-9 20-20 20zm-308-20c0 11-9 20-20 20s-20-9-20-20v-59c0-11 9-20 20-20s20 9 20 20zm90 20c-11 0-20-9-20-20v-59c0-11 9-20 20-20s20 9 20 20v59c0 11-9 20-20 20zm109 0c-11 0-20-9-20-20v-59c0-11 9-20 20-20s20 9 20 20v59c0 11-9 20-20 20z" opacity="1" data-original="#d7d7d7" class=""></path><g fill="#95A4B6"><path d="M833 735V417c-140 2-274 18-393 46-1 1-2 1-4 1-59 15-114 32-164 53h-1l404 233c50-9 104-14 158-15zM1480 538l-390 225c153 38 276 113 335 210 17-6 34-14 49-21 124-59 193-133 193-209 0-73-68-147-187-205z" fill="#95A4B6" opacity="1" data-original="#95a4b6" class=""></path><path d="M1198 842c-50-22-106-39-165-51h-3c-57-11-116-16-177-16-60 0-120 5-176 16h-4c-59 12-114 29-165 51-85 37-151 89-188 146 55 20 117 36 183 49 80-99 210-158 350-158 141 0 271 59 350 158 66-13 128-29 184-49-37-57-103-109-189-146z" fill="#95A4B6" opacity="1" data-original="#95a4b6" class=""></path></g><path fill="#E0B152" d="M1158 1045c-73-80-184-126-305-126-120 0-231 46-304 126 54 9 110 16 168 20l23-40h-24c-11 0-20-9-20-20s9-20 20-20h274c11 0 20 9 20 20s-9 20-20 20h-23l23 40c57-4 114-11 168-20z" opacity="1" data-original="#d7d7d7" class=""></path><path fill="#95A4B6" d="M281 973c59-97 182-172 336-210L226 538C107 596 40 670 40 743c0 76 68 150 192 209 16 7 32 15 49 21z" opacity="1" data-original="#95a4b6" class=""></path></g></svg>